<svg xmlns="http://www.w3.org/2000/svg" viewBox="0 0 1537.28 864">
  <defs>
    <style>
      .cls-1 {
        fill: #6ba9a4;
      }

      .cls-2 {
        fill: #6aa8a3;
      }

      .cls-3 {
        fill: #feffff;
      }

      .cls-4 {
        fill: #deeceb;
      }
    </style>
  </defs>
  <title>USMAP</title>
  <g id="Wyoming">
    <path class="cls-1" d="M484.69,326.29c-4.14-1.23-9.32-.59-14.39-1.38-4.42-.68-8.91-.84-13.36-1.26-10.5-1-21-1.91-31.49-3-7.62-.79-15.21-1.81-22.82-2.74-8.08-1-16.17-1.84-24.22-3s-16.16-1.93-24.23-3c-7.75-1-15.49-2.12-23.27-2.86-1.27-.13-2.5-.64-3.76-.71-4.08-.22-4.12-.77-3.57-4.87,1-7.27,2.22-14.51,3.3-21.77.83-5.68,1.57-11.38,2.37-17.06.76-5.37,1.56-10.74,2.32-16.11q1.28-9,2.51-18c.76-5.54,1.57-11.07,2.26-16.61.91-7.28,2.32-14.5,2.73-21.86a26.19,26.19,0,0,1,1.29-6.07c.65-2.12,1.66-2.7,4-2.62a15.37,15.37,0,0,1,3.3.48,147.74,147.74,0,0,0,20.26,3.52c7.62.86,15.2,2,22.8,3,3.8.49,7.62.88,11.43,1.31,5.54.61,11.08,1.52,16.64,1.74,5,.19,9.84,1.2,14.8,1.2a18.5,18.5,0,0,1,5.23.58,5.77,5.77,0,0,0,1.87.34c5.3-.26,10.5.91,15.76,1.16,5.57.26,11.1,1,16.65,1.61a5.32,5.32,0,0,0,1,.14c5.62-.22,11.12,1.16,16.72,1.13.64,0,1.28,0,1.92,0,4.26.29,4.8,1.08,4.37,5.43-.56,5.56-1,11.14-1.42,16.71-.63,7.64-1.23,15.28-1.85,22.92,0,.32,0,.64,0,1-.38,7.66-.38,15.36-1.25,23s-.31,15.34-1.57,22.93a6.2,6.2,0,0,0-.07,1c-.38,7.82-.78,15.64-1.12,23.46a52.64,52.64,0,0,1-.79,7.62C488.41,326.3,488.32,326.43,484.69,326.29Z" transform="translate(-0.96 -0.96)"/>
  </g>
  <g id="Wisconsin">
    <path class="cls-1" d="M869.76,274.55c-4.65-.31-9.26.24-13.88.56-5.73.4-11.42,1.18-17.17,1.39-9.09.34-18.16,1.07-27.24,1.68a2.65,2.65,0,0,1-2.76-1.44,6.09,6.09,0,0,0-5.49-3.24,4.32,4.32,0,0,1-4.45-3.61,15.9,15.9,0,0,0-1.13-3.14,9.21,9.21,0,0,1-.47-7.87c.84-2.11.71-4-1.11-5.67-2.45-2.25-2.6-5.47-2.86-8.41a22.45,22.45,0,0,0-2.38-8.21c-1.48-3-3.5-5.27-6.92-6.14a12.36,12.36,0,0,1-6.78-5.08c-2.11-2.94-4.43-5.43-8-6.46a4.5,4.5,0,0,1-2.56-2.08,4.4,4.4,0,0,0-3.45-2.33c-3.05-.18-4.6-2.7-6.86-4.1a1.86,1.86,0,0,1-.66-2.15,19.5,19.5,0,0,1,.76-2.27c.62-1.53.94-3-.09-4.54a3.23,3.23,0,0,1-.52-2.75c.74-2.31.24-4.79,1.18-7.07,1.18-2.89.32-5.3-2-7.25-.6-.51-1.29-.93-1.9-1.43a1.31,1.31,0,0,1-.34-1.74,20.23,20.23,0,0,0,3.19-6.36c.11-.39.62-.72,1-1a9,9,0,0,1,2.11-1.13c4.8-1.52,6.09-5.21,6.11-9.71,0-2.39.24-4.79-.63-7.12a7.45,7.45,0,0,1-.27-2.37c-.1-3.83,1.74-5.36,4.73-5.07a45,45,0,0,0,4.79,0,2.6,2.6,0,0,0,2.37-1.35,9,9,0,0,1,2.41-1.53c5.21-1.27,9-5.44,14.18-6.79.61-.16,1.24-.45,1.78.06a1.92,1.92,0,0,1,.33,2.22c-.61,1.48-1.38,2.88-2,4.36a12.26,12.26,0,0,0-.66,2.75c-.1.7.9,1.51,1.6,1.41a1.39,1.39,0,0,0,.46-.09c2.57-1.45,5.24-1,7.92-.44a6,6,0,0,0,.95,0,9.39,9.39,0,0,1,6,4.41,6.81,6.81,0,0,0,6.72,3.58c5.53-.21,10.93,1.48,15.74,3.49,6.22,2.59,12.59,3,19,4a18.08,18.08,0,0,1,14.91,15.38c.66,4.24,3.35,7.81,4.74,11.83-.1.74-.19,1.48-.29,2.22-1,.71-2.17.88-3.15,1.52l0,0a27,27,0,0,0-1.29,3.15c-.5,1.35-1,2.68-1.51,4s-1.18,3-1.6,4.51c-.55,2,.26,2.91,2.46,3a7.69,7.69,0,0,0,1,0,2.48,2.48,0,0,0,2.21-1.51c1.42-2.66,3-5.25,4.5-7.87a2.65,2.65,0,0,1,1.86-1.37,2.79,2.79,0,0,1,3.3,2.62,6.28,6.28,0,0,1-1.12,3.6,9.08,9.08,0,0,0-1.71,5.4c-.12.64-.22,1.28-.33,1.91a8.23,8.23,0,0,0,.81,5.11,2.75,2.75,0,0,1-.85,3.8c-1,.83-2,1.63-2.1,3.05-.19,1.19-.71,2.29-1,3.46a7.61,7.61,0,0,0,.88,6.54c.92,2.15-.41,4-.84,5.95L871,243.9a27.48,27.48,0,0,0-1.52,6.76,3.12,3.12,0,0,0,.52,3.69c.9,1.14.67,2.55.93,3.84A3.65,3.65,0,0,0,872,261c.33.86,1.2,1.44,1.29,2.43.29.78.59,1.57.89,2.35a3.9,3.9,0,0,1,.18,2.06c-.1.93-.17,1.86-.3,2.79C873.65,273.66,874.31,274.44,869.76,274.55Z" transform="translate(-0.96 -0.96)"/>
    <path class="cls-1" d="M808.49,147.94a5.34,5.34,0,0,0,3.78-1.77c.28-.83,1.33-.59,1.74-1.24a12.33,12.33,0,0,0,2.28-1.73,8,8,0,0,1,7.55-3.15c1.64.2,3-.86,4.3-1.86a21.18,21.18,0,0,1,6.47-4,6.23,6.23,0,0,0,3.38-3.24,19,19,0,0,1,1.78-2.81,1.14,1.14,0,0,1,1.7-.18,56.91,56.91,0,0,1,3.87,4.21,3.46,3.46,0,0,1,.78,3.14,9.42,9.42,0,0,0-.29,2.36c0,1.28,1.48,2.21,2.31,1.36,1.59-1.64,4.31-1.41,5.55-3.55a1.52,1.52,0,0,1,1.2-.62c4,.3,8,.74,10.78,4.18a58.73,58.73,0,0,0,4.17,4.62c2.37,2.36,5.15,3.13,8.29,1.57a3.44,3.44,0,0,1,4,.13c2.24,1.51,4.95.75,7.48.69A1.57,1.57,0,0,0,891,144.9c.33-.9.49-1.92,1.36-2.47,5.25-3.36,10.48-6.78,17.18-6.08a8.9,8.9,0,0,0,7.17-2,3.82,3.82,0,0,1,1.24-.71c3-1.1,4.92-1.92,4.76,2.68a11.24,11.24,0,0,0,.19,1.91c.42,2.7.66,3,3.29,3,1.76.06,3.62-.44,5.25,0,2.19.6,3.82.69,5.47-1.2,1-1.18,2.69-.55,3.62.84,1.09,1.64.78,3.73,1.93,5.38,1,1.49,3,1.82,3.9,3.46.45.83,1.08,1.58,1.52,2.42a.68.68,0,0,1-.54,1.05c-3,.13-6,.9-9-.14-2.58-.89-4.24-.3-5.8,1.8-.47.63-.68,1.46-1.17,2.06a1.38,1.38,0,0,1-1.26.3,11.13,11.13,0,0,1-2.46-1.47,10.71,10.71,0,0,0-7.59-2.38,25.16,25.16,0,0,1-2.88,0c-1.88-.11-3.56.3-4.57,2-.84,1.42-2.07,1.7-3.57,2-3.29.59-6.54,1.42-9.8,2.21-1.49.36-2.6,1.13-2.67,2.91a7.21,7.21,0,0,1-.61,2.29,1.18,1.18,0,0,1-2.14.35c-2.2-2.65-3.3-2.78-5.81-.69-.24.2-.45.45-.69.66-.69.61-1.2,1.85-2.2,1.6-1.48-.38-.59-1.88-.91-2.84a6.59,6.59,0,0,0-.32-.88c-.06-.13-.22-.31-.32-.3-.29,0-.75,0-.85.19a13.28,13.28,0,0,0-1.17,2.58,27.06,27.06,0,0,1-3.86,8.72,9.21,9.21,0,0,0-1.61,3.46c-.82,4-2.92,7.37-5.33,10.58-3.18-2.79-4.44-6.58-5.16-10.52-.93-5-7.41-12.24-12.38-13-3.45-.51-6.89-1.33-10.44-1.17a10.61,10.61,0,0,1-5.15-.89c-7-3.4-14.53-4.54-22.06-5.78C810.13,156,807.62,152.91,808.49,147.94Z" transform="translate(-0.96 -0.96)"/>
  </g>
  <g id="West_Virginia">
    <path class="cls-1" d="M1027.59,371.85a10.65,10.65,0,0,0,2.32.51c2.74,0,4-1.26,4-4.07.07-3.1.4-6,3.31-8a5.42,5.42,0,0,0,1.25-2,2.41,2.41,0,0,1,2.26-1.46c2.48,0,4.1-1.51,5.61-3.23,1.68-1.92,3.14-4,5.37-5.43a4.85,4.85,0,0,0,2-4.17,36.83,36.83,0,0,1,1.27-10.38c.48-1.6,0-3.49-.06-5.24a10.85,10.85,0,0,1,.23-1.88c.07-.36.35-.47.74-.32a1.18,1.18,0,0,1,.37.24c.62.63.51,1.47.65,2.24.63,3.46,1.2,6.92,1.92,10.35.5,2.41,1.22,3,3.65,2.73,3.32-.38,6.62-1,9.91-1.6,3.46-.63,6.88-1.39,10.33-2.06,1.21-.23,1.82.2,2,1.42.4,2.36.71,4.73,1.07,7.09a20.3,20.3,0,0,0,.51,2.82c.36,1.18.17,2.79,1.64,3.26,1.73.55,2.56-1,3.49-2,1.52-1.64,2.91-3.39,4.33-5.11.82-1,1.61-2,3.07-2,1.85,0,2.91-1,3.68-2.59a3.68,3.68,0,0,1,4.36-2.09,12.57,12.57,0,0,0,2.87-.07,2.82,2.82,0,0,0,2.7-1.68c.56-1.5,2-2,3-2.92,1.35-1.15,2.71-1.64,4.33-.56a2.28,2.28,0,0,0,.91.25c1.21.16,2.74-1.32,3.56.06,1.49,2.53,4.16,4.6,3.54,8.09-.19,1.08-1,1.86-2,1.45-1.91-.8-3.77-1.72-5.63-2.63-.86-.43-1.63-1-2.5-1.42a3.33,3.33,0,0,0-4.78,2.45,21.54,21.54,0,0,0-.22,5.26c.24,2.59-.83,4.66-2.2,6.66-1.51,2.22-3.93,3.61-5.32,6-.62,1.06-2.23,1.12-3.44,1.52a2.3,2.3,0,0,0-1.79,2.53c.4,2.72-1.14,4.94-1.66,7.41a5.47,5.47,0,0,1-1.83,2.74,2.3,2.3,0,0,1-3,.54,33.8,33.8,0,0,0-3.88-1.88c-2.32-.88-4.12.27-4.48,2.77a3.8,3.8,0,0,0,0,1.9c1,2.5-.06,4.69-.92,6.91q-3.27,8.47-6.59,16.94a4.88,4.88,0,0,0-.44,2.8c.29,1.36-.39,2.46-.71,3.69-.56,2.12-1.65,3.3-3.93,3.52a6.47,6.47,0,0,0-3.8,1.9,3.18,3.18,0,0,1-3.54.69,7.65,7.65,0,0,0-1.36-.43,1.45,1.45,0,0,0-1.81,1.62c.16,1.08.79,2.1-.26,3.09a5.45,5.45,0,0,1-3.39,1.62,6.27,6.27,0,0,1-1.43.07c-3.35-.56-6.32-.19-8.48,2.89a1.88,1.88,0,0,1-2.62.36c-2.86-2-6.52-2.8-8.48-6.05a5,5,0,0,0-3.11-2.1c-3.79-1-6.21-3.86-8.44-6.78a32.07,32.07,0,0,0-3.64-4.41,8.66,8.66,0,0,1-3-6.79A11.3,11.3,0,0,0,1019,394a2.06,2.06,0,0,1,1.19-2.75,7,7,0,0,0,3.59-3.67,4.49,4.49,0,0,1,1.51-1.8c1.94-1.32,2.16-3.13,1.46-5.08A10.78,10.78,0,0,1,1027.59,371.85Z" transform="translate(-0.96 -0.96)"/>
  </g>
  <g id="Washington">
    <path class="cls-1" d="M231.46,32.59c.29,1.81-.35,3.47-.73,5.18-2.86,12.93-5.84,25.83-8.48,38.8-2.49,12.18-5.27,24.32-7.24,36.61a14.09,14.09,0,0,0,.59,7.51,7.63,7.63,0,0,1,.59,3.27,1.44,1.44,0,0,1-1.9,1.5q-8.68-1.74-17.34-3.55t-17.31-3.66c-1.4-.29-2.81-.57-4.18-1a14.93,14.93,0,0,0-6.11-.88,11.9,11.9,0,0,1-5.19-.64,9,9,0,0,0-6.55,0,4.61,4.61,0,0,1-3.71-.15,10,10,0,0,0-5.67-.18c-2.51.47-5,1-7.51,1.46a6.28,6.28,0,0,1-5.45-1,5.61,5.61,0,0,0-5.41-1,21.87,21.87,0,0,1-7.62.48A2.2,2.2,0,0,1,120,114a4,4,0,0,0-3.74-2.54,24.86,24.86,0,0,1-6.53-1.46,9.92,9.92,0,0,0-6.56-.14,6.92,6.92,0,0,0-.91.3c-3.47,1.68-6.78.85-10.17-.45a5.17,5.17,0,0,1-3.68-5,50,50,0,0,1,0-6.24c.49-5.78-2.52-9.37-7.33-11.72C79.59,86,78.36,85,77,84.21c-2.12-2.65-4.74-4.15-8.26-3.73a7.34,7.34,0,0,1-2.34-.08A1.49,1.49,0,0,1,65.28,79c-.07-.67.11-1.57.68-1.65,3-.46,3.61-2.71,3.94-5.12.22-1.61,1.24-2.47,2.4-3.38a1.51,1.51,0,0,0-.16-2.47c-1.06-.69-2.2-1.25-3.28-1.92a1.19,1.19,0,0,1-.44-.81,1,1,0,0,1,.71-1.07,10.37,10.37,0,0,0,4.83-2,1.55,1.55,0,0,0,.25-2.12c-.1-.12-.18-.3-.31-.36-3.52-1.71-4.3-4.61-4-8.28.16-2.36-.46-4.76-.66-7.14a20.58,20.58,0,0,1,.47-8.08,5.42,5.42,0,0,0-.23-3.74c-.64-1.64-1.19-3.3-1.77-5a9,9,0,0,1,.86-8.26c.75-1.18,1.44-2.41,2.2-3.67,1.91.22,3.07,1.65,4.19,2.93,3.73,4.25,8.53,6.61,13.77,8.32,1.81.59,3.73.93,5.3,2.15a1.49,1.49,0,0,0,.84.42c3-.22,5,1.53,7,3.48a3.49,3.49,0,0,0,1.16.83c1.31.47,2.82.5,2.83,2.56,0,2.24-.45,4.26-2.55,5.28a33.41,33.41,0,0,0-5.46,3.83,11.2,11.2,0,0,0-4.33,5.6,2.43,2.43,0,0,0,.87,3A1.65,1.65,0,0,0,97,51.46,5.26,5.26,0,0,0,97,50a2.56,2.56,0,0,1,1.65-2.65,26.86,26.86,0,0,1,3.13-1.19,1.4,1.4,0,0,1,2,.81,16.26,16.26,0,0,1,1.09,3.14c.42,2.65-.63,3.89-3.31,3.69a5.9,5.9,0,0,0-4.4,1.42c-1.37,1.09-2.79,2.13-4.14,3.25a1.83,1.83,0,0,0-.63,2.13,1.44,1.44,0,0,0,1.55.87c5.18,0,10.2-.49,14.55-3.78a6.79,6.79,0,0,0,3-4.69c.33-2.52.81-5,1-7.57a6.84,6.84,0,0,1,2-4.68,7.19,7.19,0,0,0,2.11-7.84c-.9-2.91-.29-6.07-1.3-9a1.42,1.42,0,0,1,.38-1.27c2.8-2.23,1.1-5.38,1.68-8.06.41-1.85-.92-3.24-1.77-4.79-.77-1.4-2.82-2.36-1.91-4.49,1.69-.56,3,.55,4.53.94,10.35,2.65,20.67,5.44,31.07,7.94,15,3.6,30.13,7,45.21,10.46,1.54.36,3.15.44,4.74.65.86,0,1.55.68,2.42.71l1.5.15a24.82,24.82,0,0,0,2.41.9,5.11,5.11,0,0,0,2.82.57c.66.14,1.32.31,2,.43a5.29,5.29,0,0,0,2.82.52c.66.15,1.32.32,2,.45l2.81.56a11.68,11.68,0,0,1,2,.6l1.87.29c.66.17,1.31.35,2,.49a5.16,5.16,0,0,0,2.82.48c.66.16,1.31.34,2,.49Z" transform="translate(-0.96 -0.96)"/>
  </g>
  <g id="Virginia">
    <path class="cls-1" d="M1185.6,419.52c-3.26-.22-6.3.92-9.42,1.53-16.9,3.31-33.83,6.53-50.66,10.15-13.11,2.82-26.35,4.82-39.52,7.25-10.2,1.88-20.49,3.27-30.74,4.85a13.14,13.14,0,0,1-2.87.16c-7.58-.52-14.9,1.31-22.29,2.52-6.12,1-12.23,2.11-18.36,3.09a31.83,31.83,0,0,1-4.44,0c2.68-1.13,4.48-2.53,5.36-4.88a2.56,2.56,0,0,1,1.3-1.33c2.13-.81,3.09-2.6,4.17-4.41,2-3.29,4.07-6.48,7.73-8.21,2-.94,3-2.82,4.17-4.53a24.44,24.44,0,0,1,3.84-4.88,1.81,1.81,0,0,1,2.58-.2c2.33,2,5.42,2.68,7.92,4.43,2.06,1.45,4.31,1.5,6-.52a6.2,6.2,0,0,1,5.95-2.18,8.71,8.71,0,0,0,8.4-3.56c.29-.38.7-1,1-1,3,.29,4.36-2.17,6.37-3.53a4.06,4.06,0,0,1,1.79-.64,5.39,5.39,0,0,0,5.09-4.32,11.72,11.72,0,0,1,1.34-2.51,2.27,2.27,0,0,0,.23-2.27c-.73-1.43-.37-2.69.22-4.1,2.27-5.44,4.36-11,6.62-16.4a17.42,17.42,0,0,0,1-8c1.7-.65,2.71.34,3.8.76a6.53,6.53,0,0,0,7.1-1.41,4,4,0,0,0,1.72-2.78c0-1.8.87-3.39,1.2-5.09.42-2.12.91-4,3.47-4.49a2,2,0,0,0,1.13-.85c2-2.69,4.73-4.62,6.55-7.44a11.17,11.17,0,0,0,2.19-6.7,4.27,4.27,0,0,1,0-.95c1-5,.87-5.2,5.13-3a35,35,0,0,0,4.85,2c2.4.82,3.17.48,4.3-1.61a10.42,10.42,0,0,0,.54-1.34,2.12,2.12,0,0,1,2.08-1.65,3.21,3.21,0,0,1,2.83,1.5c.09.13.22.28.22.42-.21,3.54,2.49,3.93,5,4.63a21.54,21.54,0,0,1,3.63,1.23c4.7,2.28,5.05,5.19,3.65,8.49-.67,1.6-1.81,3.05-1.63,4.93a1.88,1.88,0,0,1,.83,1.95,2.6,2.6,0,0,0-.08,1.41,11.82,11.82,0,0,0,1,1,.57.57,0,0,1,.22.55c-.05.19-.1.29-.16.29.44,2.21,1.28,2.83,3,2.11a13.06,13.06,0,0,0,2-1.49,12.15,12.15,0,0,0,1.34,2,9.25,9.25,0,0,0,7.79,2.94,7.6,7.6,0,0,1,5.42,1.34,34.1,34.1,0,0,0,5.16,2.49c.59.27,1.41.6,1.27,1.25-.48,2.34,1.46,4.22,1.11,6.49a2.55,2.55,0,0,1-2.08.5c-2.4-1-4.26-2.74-6.18-4.39a16.68,16.68,0,0,0-4-2.6,1.75,1.75,0,0,0-2.19.27c-.62.72-.28,1.49.21,2.14a7.5,7.5,0,0,0,1,1c3.44,3,6.68,6.28,11.31,7.48,1.37,1.41,3.27,1.81,5,2.63.28.13.37.81.38,1.25a.92.92,0,0,1-.56.63,5,5,0,0,1-1.4.11,2.31,2.31,0,0,0-1.71.68c-.66.7-.12,2.61-1.91,2.1a11,11,0,0,1-2.41-1.48,5.25,5.25,0,0,0-.89-.33c-.64,0-.84.37-.94.9a6.93,6.93,0,0,0,6.26,4.44,5.81,5.81,0,0,1,4.77,2.74,2,2,0,0,1,.13,2.63,2.2,2.2,0,0,1-3,.3,53.91,53.91,0,0,0-5.27-4.09c-2.69-1.59-5.57-2.93-8.88-2.07-1.32.34-2.51-.37-3.77-.42s-2.25.56-2.17,1.33c.09,1,.85,1.28,1.65,1.42,2.5.44,5,.86,7.53,1.24s4.58,1.25,5.86,3.62a11.43,11.43,0,0,0,1.92,2.09c.88.92,1.6,2.24,2.67,2.64,1.4.53,2.93-.81,4.57-.37.77.2,1-.68,1.1-1.28.1-1.46.92-1.83,2.22-1.87,4.66-.13,4.9,0,6.14,4.62.13.46.33.9.43,1.37.66,3.06.24,3.69-3,4.6Z" transform="translate(-0.96 -0.96)"/>
  </g>
  <g id="Vermont">
    <path class="cls-1" d="M1202.88,136.31c4.25-.65,8.26-2.19,12.39-3.31a17.43,17.43,0,0,1,4.88-1.53l1.84-.4a9.57,9.57,0,0,1,2-.65l1.85-.35a10.64,10.64,0,0,1,2-.61l1,.15c5.15,6.9,5,15.07-.58,21.14a7.45,7.45,0,0,0-2.14,6.44,31.56,31.56,0,0,1-1.4,14.66,18.24,18.24,0,0,0-.62,9.88c1.07,5.75,1.2,11.65,2.15,17.44.63,3.89-1,6.49-5.09,7.23-.93.17-1.84.56-2.76.82-6.81,1.92-7.87,1.22-9.24-5.88-1.1-5.66-3.17-11.06-4.95-16.52-.94-2.91-4-4.57-4.85-8-1.32-5.34-3.57-10.2-3.13-16.14.42-5.62-2.88-11-4-16.66,0-.78,0-1.56,0-2.33-.09-1.72.91-2.52,2.41-2.93l6.27-1.79A4.24,4.24,0,0,1,1202.88,136.31Z" transform="translate(-0.96 -0.96)"/>
  </g>
  <g id="Utah">
    <path class="cls-1" d="M295.65,436.08a5.9,5.9,0,0,0-1.63-.88c-12.11-2-24.24-3.91-36.33-6-8.64-1.5-17.24-3.26-25.86-4.93-2.19-.43-2.62-1.11-2.19-3.35,2.33-12.22,4.7-24.43,7-36.66,2.09-11.13,4.09-22.29,6.19-33.42,1.66-8.79,3.41-17.56,5.11-26.34q1.55-8,3-16c.07-.4-.23-.88-.36-1.32-1.32-1.56-.19-2.69.69-3.86,1.5-2.19,1.47-4.82,2-7.27,1.7-8.77,3.26-17.57,4.9-26.35.29-1.58.6-1.78,2.31-1.49,7.23,1.23,14.46,2.51,21.7,3.72q10.6,1.79,21.25,3.47c6,1,12,1.8,18,2.81,2.21.37,2.48.68,2.29,2.83-.36,4-.89,7.92-1.44,11.86-.69,4.88-1.5,9.75-2.2,14.63a2.74,2.74,0,0,0,2.46,3c2.19.44,4.41.75,6.63,1.06,4.57.64,9.15,1.28,13.73,1.85,3.49.44,7,.79,10.47,1.12,3.65.35,7.22,1.28,10.92,1.27a12.32,12.32,0,0,1,3.24.81,1.71,1.71,0,0,1,1.26,1.81,23.37,23.37,0,0,1-.06,3.35c-.47,3.64-.92,7.28-1.56,10.88-.5,2.83-.36,5.7-1,8.55-.83,3.54-.85,7.27-1.29,10.91-.46,3.79-.92,7.59-1.55,11.35-.5,3-.62,6-1.11,9-1,6.29-1.47,12.67-2.26,19s-1.71,12.63-2.57,18.95c-.39,2.84-.76,5.72-1,8.55-.61,7.17-2.14,14.2-2.85,21.34,0,.32-.1.64-.17,1-.35,1.55-1.15,2.21-2.74,2-7-.89-13.94-1.79-20.9-2.77-5.69-.79-11.37-1.69-17.05-2.56q-5.44-.82-10.87-1.69a3.66,3.66,0,0,0-2.33.26A3.82,3.82,0,0,1,295.65,436.08Z" transform="translate(-0.96 -0.96)"/>
  </g>
  <g id="Texas">
    <path class="cls-1" d="M728.27,702.47c-1.77-.31-3.35-1.69-5.3-.93a1.43,1.43,0,0,1-.48-1.78,12.19,12.19,0,0,0,1-2.66,2.68,2.68,0,0,0-4.23-2.55,4.11,4.11,0,0,0-1.09.94c-.92,1.2-2,1.17-3.39.88-1.65-.34-2.26.56-2.09,2.23.31,2.91,1.72,5.45,2.69,8.13.43,1.17.59,2-.56,2.91-1.63,1.24-2.43,3.36-4.48,4.23a2.16,2.16,0,0,0-1.07,2c-.17,2.88-2,4.58-4.25,6a37.39,37.39,0,0,0-4,2.61c-2.42,1.95-4.91,3.43-8.24,3.24-1.78-.11-2.69,1.34-3.41,2.9-.91,2-1,2-3.17,1.32a61.1,61.1,0,0,0-6-1.41c-1.82-.37-3.29-.7-4.45-2.17a.88.88,0,0,0-1.27,0,1.83,1.83,0,0,0-.42.82c0,.13,0,.31,0,.47,0,.84,1.18,1.86-.11,2.45-.8.38-1.36-.61-2-1.1-.82-.67-1.46-1.83-2.83-1.2-.95.45-.94,1.51,0,3.37,1.63,3.26,1.63,3.26,4.13,4.79-.43,1.26-1.7,1.35-2.65,1.85a2.53,2.53,0,0,1-3.44-.56,10.9,10.9,0,0,0-1.31-1.4,1.87,1.87,0,0,0-1.8-.34,1.4,1.4,0,0,0-.88,1.52c0,1.28.23,2.55.28,3.82a2.73,2.73,0,0,1-2,2.9,10,10,0,0,1-4.28.29c-3.78-.32-5.43,2-3.75,5.9,1.21,2.84.63,3.75-2.33,3.54a13.25,13.25,0,0,0-5.21.33,1.47,1.47,0,0,0-.8,2c.89,1.32,1.81,2.62,2.81,3.86a4.15,4.15,0,0,1,.75,4c-.18.61-.41,1.22-.54,1.84-.32,1.56-.38,3.86-1.86,4.12-2.16.39-4.73,1-6.76-.91a3.84,3.84,0,0,0-1.26-.64,1.36,1.36,0,0,0-1.65,1.25,11.74,11.74,0,0,0,.27,1.39c.9,4.4.9,4.4,5.47,4.68a7.57,7.57,0,0,1,1,.06c.89.18,1.47.67,1.29,1.65a8.38,8.38,0,0,1-1.43,4c-1.79,2.3-1.54,4.84-.39,7.22a13,13,0,0,1,1.32,5.52c.09,4.24,1.61,8.18,3.37,11.9,1.33,2.84,1.61,5.76,2.11,8.7a2,2,0,0,1-.56,1.73c-1.54,1.65-2.32,1.92-4,.33-.58-.55-1.18-1.07-1.77-1.61a16.86,16.86,0,0,0-12.69-4.68c-1.59.09-3.2,0-4.79.07A7.55,7.55,0,0,1,619.7,810a9.26,9.26,0,0,0-6.32-3,9.59,9.59,0,0,1-5.61-2.49,12,12,0,0,0-7.41-3,2.51,2.51,0,0,1-2.6-2.26c-.41-1.71-1.29-3.35-1.41-5.06a13.8,13.8,0,0,0-2.78-7,12.53,12.53,0,0,0-1.11-1.56c-3.33-3.57-3.45-8.07-3.54-12.52a7,7,0,0,0-.38-3.24,8.46,8.46,0,0,1-.77-4.2,3.82,3.82,0,0,0-3.26-4.15c-2.91-.5-4.34-2.32-5.59-4.69-.88-1.68-2.06-3.22-3.11-4.82a1.56,1.56,0,0,0-.31-.37c-1.68-1.62-1.73-4.17-3.15-5.84s-3.2-2.59-4.7-4c-1.34-1.24-1.76-3.05-2.17-4.74a42.65,42.65,0,0,0-3.71-9.32,55.2,55.2,0,0,1-3-7,32.08,32.08,0,0,0-9.2-14.35c-2.52-2.19-4.69-4.76-7.52-6.66a13.53,13.53,0,0,1-3.57-3.84,38.19,38.19,0,0,0-2.92-3.79,3.33,3.33,0,0,0-3.82-1.3,7.8,7.8,0,0,1-6-.26c-1.5-.65-3.16-.42-4.75-.34a8,8,0,0,1-5.49-1.21,10.92,10.92,0,0,0-1.73-.8,3.49,3.49,0,0,0-4.06.32,13.61,13.61,0,0,1-6.87,3c-2.3.44-3.87,2.17-4.92,4.26-1.36,2.71-2.78,5.41-3.94,8.21-1.67,4-4.66,6.79-8.09,9.21a4.22,4.22,0,0,1-4.93.18,8.65,8.65,0,0,1-3-2.25,12.81,12.81,0,0,0-5.22-4.1,12.14,12.14,0,0,1-2.79-1.81,8.32,8.32,0,0,0-3.34-1.78,14.74,14.74,0,0,1-6.86-4.21,28.19,28.19,0,0,0-5.85-4.93,7.5,7.5,0,0,1-2.79-3.21,71.77,71.77,0,0,1-4.25-10.68,12.31,12.31,0,0,1-.34-4.27,10.36,10.36,0,0,0-.5-4.74c-1.9-4-3.17-8.33-5.73-12.1a24.46,24.46,0,0,0-5.89-6.19,23,23,0,0,0-3.2-2.11,15.91,15.91,0,0,1-7.13-7.43A29.65,29.65,0,0,0,415.08,633a27.59,27.59,0,0,1-8.18-9.15c-1.82-3.25-4.44-5.88-8.36-6.67-1.11-3.78-.56-4.7,3.42-5,6.26-.52,12.45.61,18.63,1.26,11.74,1.23,23.48,2.37,35.23,3.33,10.65.86,21.26,2.22,32,2.13,4.16,0,5.64-1.73,6.17-5.43,2.26-15.68,3.45-31.46,4.79-47.22,1-11.61,1.64-23.23,2.7-34.83.68-7.47.38-15,.93-22.49.71-9.7,1.32-19.41,2.19-29.1.43-4.74,2.23-5.81,7-5.56,11.48.61,22.92,1.81,34.39,2.3,8.94.38,17.84,1.26,26.81,1.28,7.7,0,9.76,2.92,8.79,10.74a66,66,0,0,0-.31,11.5c.56,11.7-1.18,23.31-1,35,.09,4.9,6.6,11.14,11.49,10.92,4.12-.18,8.28-.62,9,5.18a2.09,2.09,0,0,0,2.09,1.7c5.81.3,11.12,2.6,16.61,4.17a2.73,2.73,0,0,0,1.89-.09c5.3-2.41,8.78-.52,11.28,4.44,1.3,2.58,3.28,3.93,6.14,1.58,1.31-1.07,3.16-1.5,4.48-.4,3.09,2.57,7.46,1.61,10.51,4.14,1.09.9,2,.18,2.91-.61,4.61-3.85,10.06-4.18,14.91-.09,3.11,2.63,5.45,2.63,8.9.9,6-3,12.22-5.39,19.13-3a2.23,2.23,0,0,0,1.88-.1c4.5-3.1,7.76-.25,11.74,1.68,6.34,3.06,12.29,7.44,19.84,7.64,3.16.08,3.38,2.77,3.67,5.26,1.22,10.52,1,21.07.95,31.62,0,6.56.78,12.75,5.47,17.83a6.06,6.06,0,0,1,1.8,3.87c0,5.64,3.66,9.81,6,14.41a19.34,19.34,0,0,1,.41,17.47c-2.33,5.28-3.8,10.39-1.85,16.07a6.85,6.85,0,0,1-.71,6,49.41,49.41,0,0,0-4.64,10.46l-3,.47a11.45,11.45,0,0,1-2,.53c-3.24.56-5.81,2.52-8.59,4C729.78,701.47,729.21,702.3,728.27,702.47Z" transform="translate(-0.96 -0.96)"/>
  </g>
  <g id="Tennassee">
    <path class="cls-1" d="M837,518.89c0-1.38,1.37-1.6,2.17-2.25,1.55-1.25,2.42-3,1.65-4.65-1.43-3,.2-5.51.56-8.22.1-.77.66-1.53.63-2.28a4.83,4.83,0,0,1,2.74-5c2.37-1.3,2.53-4,2.81-6.32.24-2.06.07-4.11,1.24-6a2.5,2.5,0,0,0,.26-1.83,4.8,4.8,0,0,1,.85-4.49c.59-.86.4-2.44,1.11-3a11.58,11.58,0,0,1,3.92-1.61c4-1.25,8.15-1.47,12.29-1.8,5.25-.42,10.51-.78,15.76-1.21a23,23,0,0,0,2.81-.59,2.62,2.62,0,0,0,2.33-2.62c0-.64,0-1.28.09-1.92a1.4,1.4,0,0,1,1.6-1.37,33,33,0,0,1,4.78.33,18.81,18.81,0,0,0,6.65-.1c3.61-.6,7.29-.85,10.93-1.31,3.32-.41,6.63-.92,10-1.35q2.85-.37,5.71-.61c7.47-.61,15-1.11,22.43-1.68s14.6-1.68,21.91-2.39c5.24-.5,10.43-1.52,15.69-2,4-.34,7.92-1,11.88-1.41,7.94-.89,15.82-2.17,23.68-3.58,5.18-.93,10.42-1.55,15.63-2.31,1.89-.28,3.78-.62,5.68-.84,1.12-.13,1.74.57,1.75,1.72a7.29,7.29,0,0,1-2.15,5.66,9.29,9.29,0,0,0-3,4.27c-.56,2.23-1.68,2.78-3.81,2a3.27,3.27,0,0,0-3.13.85,20.41,20.41,0,0,0-2.14,1.91c-1.66,1.78-3.24,3.57-6.11,2.87a2.51,2.51,0,0,0-2.12.93c-.59.53-1.13,1.37-1.81,1.51-2.67.55-3.74,2.12-3.68,4.75a2.56,2.56,0,0,1-1.54,2.25,54.33,54.33,0,0,0-10,7.34,5.65,5.65,0,0,1-3.89,1.51,9.87,9.87,0,0,0-8.93,6.25c-1.33,2.93-2.43,5.84-5.39,7.66-1.6,1-1.77,2.88-1.91,4.7s-.48,2.18-2.32,2.34c-7,.63-13.94,1.62-20.88,2.68-3.94.61-7.93.85-11.89,1.31-1.59.18-3.14.58-4.73.75-6.67.7-13.34,1.34-20,2-5.08.51-10.17,1-15.25,1.54-4.45.48-8.92.61-13.38,1.09-9.05,1-18.14,1.5-27.22,2.23-8,.64-15.92,1.22-23.87,2a72.54,72.54,0,0,1-8.58.77C838.07,519.37,837.4,519.56,837,518.89Z" transform="translate(-0.96 -0.96)"/>
  </g>
  <g id="South_Dakota">
    <path class="cls-1" d="M565.38,266.08a4.28,4.28,0,0,0-1.22-.69,15.78,15.78,0,0,0-2.38-.17c-12.61-.4-25.24-.54-37.83-1.29-6.86-.41-13.71-.66-20.57-1-1.27-.05-2.52-.49-3.79-.52-3.73-.1-3.56-1.32-3.43-4.23.21-4.62-.19-9.28.88-13.85a1.83,1.83,0,0,0,0-.47c-.26-7.21.95-14.33,1.21-21.51s1.19-14.61,1.84-21.92a3.23,3.23,0,0,1,.33-1.39c1.92-3.2,1.54-6.77,1.7-10.27.26-5.41.63-10.82,1-16.24.09-1.36.7-1.92,2.2-1.94a65.19,65.19,0,0,1,11,.52,12.94,12.94,0,0,0,2.37.36c7.2-.14,14.34.86,21.52,1.12,8.61.32,17.25.47,25.83,1.25,5.74.52,11.49.4,17.21.83,11.65.88,23.33.43,35,1.14,13.9.85,27.79.41,41.69.58,1,0,1.92,0,2.87,0,.77,0,1.7-.16,2.13.67.59,1.11-.42,1.72-1,2.42s-1.16,1.11-1.62,1.76c-2.62,3.63-1.94,8,2.05,10.17,3.61,2,5.49,4.6,5.33,8.75-.08,1.9.26,3.81.29,5.72.12,10.55.16,21.11.32,31.65.05,3.19.41,6.37.64,9.55.16,2.21,0,4.13-2.72,4.79a1.69,1.69,0,0,0-.87,2.42,6.24,6.24,0,0,1,0,5.93c-.68,1.25-.1,2.51,1.24,3.21s1.51,1.88,1.16,3.25c-1,3.75-3.26,6.9-4.79,10.4-.23.52-.79.47-1.26.41a1.74,1.74,0,0,1-.89-.32c-2.8-2.18-6.58-2.47-9.29-4.83a3.57,3.57,0,0,0-2.73-.63,31.44,31.44,0,0,0-4.77.43,8.44,8.44,0,0,1-4.7-.09,4,4,0,0,0-4.43.86,2.52,2.52,0,0,1-3.1.39c-2.31-1.1-4.85-1.92-6.83-3.45-2.6-2-5.48-2.4-8.5-2.66a38.75,38.75,0,0,0-4.31-.07c-9.12.26-18.19-.79-27.28-1-1.75,0-3.53-.31-5.22.4C576.18,267.63,570.75,268.16,565.38,266.08Z" transform="translate(-0.96 -0.96)"/>
  </g>
  <g id="South_Carolina">
    <path class="cls-1" d="M1093.09,583.27c-1,.47-1.6,1.62-2.89,1.52a3.44,3.44,0,0,1-3.42-3.23c-.37-3.15-2.16-5.63-3.59-8.28-.72-1.32-2.12-1.86-3.55-2.28a3.83,3.83,0,0,1-2.78-3.47,18.07,18.07,0,0,0-1.49-5c-1.63-3.34-3.73-6.23-7.63-7.43a10.41,10.41,0,0,1-5.75-4.83c-1.23-2-3.13-3.59-4.11-5.84a5.23,5.23,0,0,0-4.25-2.81,7,7,0,0,1-5.5-4.13c-1.47-2.85-3.56-4.87-6.82-5.47a5.41,5.41,0,0,1-3.07-2.18,36.85,36.85,0,0,1-4.86-6.52,20.57,20.57,0,0,0-3.72-5,6.63,6.63,0,0,0-3.69-2c-2.89-.5-5.06-2.59-7.63-3.84a2.22,2.22,0,0,1-.74-3c1.45-2.65,3-5.26,4.65-7.8.84-1.3,2.41-1.68,3.78-1.89a16.49,16.49,0,0,0,6.46-2.92,40.4,40.4,0,0,1,5-2.8,11.5,11.5,0,0,1,4.54-1.4c4.51.06,8.86-1.21,13.35-1.23,3.83,0,7.55-1.16,11.43-1.05a35.24,35.24,0,0,1,7.09.86,5.82,5.82,0,0,1,4.28,3.41c.34.72.56,1.5.88,2.22.74,1.65,1.62,2.26,3.36,2,4.42-.63,8.82-1.36,13.24-2,3.46-.52,6.94-1,10.4-1.53a7.37,7.37,0,0,1,5.82,1.56c5.92,4.37,11.87,8.67,17.8,13,3.09,2.26,6.17,4.54,9.28,6.78a3.07,3.07,0,0,1,1.62,2.74,8.41,8.41,0,0,0-5.14,5.38c-.22.91-1,1.48-1.36,2.33-1.43,3.11-2.83,6.23-4.29,9.33a4.43,4.43,0,0,1-.92,1c-.69,1.07-.39,2.2-.16,3.32.5,1.64.42,3.08-1.22,4.14-.29.2-.28.86-.41,1.31a2.94,2.94,0,0,1-1,1.92l-1,.05a4.81,4.81,0,0,0-3,.84.72.72,0,0,0-.17.63,5.8,5.8,0,0,1-1.57,3.3c-.36.3-.86.54-1,.92-.75,1.66-1.79,2.61-3.73,1.9a2.48,2.48,0,0,0-.94-.1,1.83,1.83,0,0,0-1.78,2.61c.25.57.75,1,1,1.6.17.38.35,1.05.16,1.28-1.08,1.29-1.67,3-3.75,3.38-1.8.32-3.61.73-5,2.48-.95,1.24-2.75,1.45-4.42,1.21a6.23,6.23,0,0,0-4.89,1.43,1,1,0,0,0,.07,1.6,7.23,7.23,0,0,0,3.15,1c2.13.31,2.33.69,1.86,2.79-.3,1.31-1.1,1.72-2,.92a6.88,6.88,0,0,0-3.56-2.2c-.78-.14-1.41-1.17-2.12-1.79-1.1-.25-1.67.15-1.64,1.32l2.84,5.52c.46,1.06.57,2.05-.56,2.8Z" transform="translate(-0.96 -0.96)"/>
  </g>
  <g id="Rhode_Island">
    <path class="cls-1" d="M1256.68,242.26a2.62,2.62,0,0,1-.93-2.09,20.05,20.05,0,0,0-2-8.22,34.23,34.23,0,0,1-1.27-3.56c-1.08-3.77-.42-4.85,3.32-5.64a3.2,3.2,0,0,1,3.41,1.09c.89,1.09,2,2,2.07,3.6a5.67,5.67,0,0,0-.25,5.43c.19.43.37.87.52,1.32,1.66,5.06.31,6.15-3.5,7.62C1257.58,242,1257.13,242.11,1256.68,242.26Z" transform="translate(-0.96 -0.96)"/>
  </g>
  <g id="Pennsylvania">
    <path class="cls-1" d="M1062.8,258.2c.38,1.87.67,3.77,1.16,5.62.57,2.08,1.71,2.72,4,2.28,5.64-1.1,11.27-2.26,16.9-3.4l65.66-13.33a84.41,84.41,0,0,0,13.81-3.85c1.66-.64,3.1-.66,4.34.77.89,1,2.19,1.25,3.37,1.72,2.07.82,3.62,2.22,3.83,4.5.3,3.15,2.27,4.74,4.84,6,1.26.62,2.77.89,3.7,2.35-1.4,2.61-2.77,5.3-2.66,8.48,0,1.36-1,2.3-1.76,3.35-1,1.46-1.43,2.83.1,4.24a2,2,0,0,1,.38,2.64c-2.28,4.19-1.38,7.64,2.32,10.53a4.33,4.33,0,0,1,1,1.61,2.92,2.92,0,0,0,3.08,1.83c2.48-.28,3.82,1.09,5,3,1.39,2.3,1.62,2.47-.08,4.57s-3.85,4.29-5,7a3.52,3.52,0,0,1-2,2,4.25,4.25,0,0,0-2.19,1.78c-.91,1.56-1.9,2.38-3.81,1.41-1.07-.54-2.19,0-3.12.73s-1.76,1.37-2.62,2.07a12.05,12.05,0,0,1-6.58,2.67c-7.82.74-15.38,2.82-23.07,4.23-10.67,2-21.28,4.24-31.91,6.37q-18.29,3.68-36.58,7.34c-3.74.75-7.5,1.46-11.25,2.16a1.65,1.65,0,0,1-2.14-1.35c-.85-3.9-1.79-7.79-2.46-11.72-2-11.47-3.8-23-5.67-34.44-1.06-6.45-2.06-12.91-3.14-19.36a8.83,8.83,0,0,1,1.08-6c2.39-1.7,4.8-3.39,7.18-5.11C1059.87,259.88,1061.1,258.67,1062.8,258.2Z" transform="translate(-0.96 -0.96)"/>
  </g>
  <g id="Oregon">
    <path class="cls-1" d="M75.8,87a9.9,9.9,0,0,0,3.67,2.19c2.15.55,3.53,2,4.8,3.75a6.92,6.92,0,0,1,1.41,4.45c-.05,2.4,0,4.8,0,7.2-.09,3.91,1.94,6.29,5.42,7.61a17.37,17.37,0,0,0,11.27.67,10.75,10.75,0,0,1,7.5,0,20.43,20.43,0,0,0,3.28.58c2,.48,4.11.8,4.89,3.24.32,1,1.28,1.33,2.26,1.56a14.9,14.9,0,0,0,7.59,0,9.19,9.19,0,0,1,7.4.66c2.18,1.2,4.68.88,7.06.54,1.58-.22,3.12-.71,4.68-1,2.35-.51,4.7-1,7,.2a4.22,4.22,0,0,0,3.73,0,8,8,0,0,1,7,.15,9.13,9.13,0,0,0,6.08.62,4.16,4.16,0,0,1,2.83.08c4.26,2.07,9,2.09,13.48,3.12q13,3,26.14,5.72c1.73.36,3,1,3.47,2.73a7,7,0,0,0,2.19,3.66c2.92,2.41,2.87,5.55,1.12,8.18-2.46,3.7-3.75,8.18-7.34,11.14a9.82,9.82,0,0,0-2.83,4.4,15,15,0,0,1-5.93,7.29,15.35,15.35,0,0,0-5.17,6.21,6.16,6.16,0,0,0-.43.85c-1.61,6.29-2.26,6.13,2.39,9.89,2,1.57,1.93,1.6.82,3.92-.13.29-.29.57-.45.85-3,5.18-4.4,10.81-5.42,16.72-2,11.32-4.54,22.52-6.85,33.78-.62,3-1.15,6-1.79,8.92-.58,2.64-1.44,3.27-4,2.7-4.52-1-9-2.16-13.52-3.22-13.2-3.1-26.45-6-39.61-9.31-12.55-3.09-25-6.46-37.53-9.78q-20.61-5.47-41.16-11.09c-6.78-1.84-13.52-3.78-20.29-5.63-2.46-.67-5-1.19-7.44-1.78l-1.35-.42a2.85,2.85,0,0,1-1-1.89c-.05-1.43-.12-2.86-.14-4.28a13.7,13.7,0,0,1,1.33-6.95,15.86,15.86,0,0,0,1.59-9.69,8.68,8.68,0,0,1,2.05-7.06,2.11,2.11,0,0,0,.86-.89c2.12-1.65,2.32-4.22,3.11-6.51,1.13-1.25,2.72-1.87,4-2.86a1.88,1.88,0,0,0,1.17-1.41,9.12,9.12,0,0,1,4.5-7.46,1.46,1.46,0,0,0,.83-1.58c-.56-1.91.53-3.4,1.07-5,.66-2,1.32-3.93,2-5.89a16.57,16.57,0,0,1,1.22-3.12c2.77-4.55,4.15-9.6,5.35-14.71a37.84,37.84,0,0,1,4.71-10.42A20.2,20.2,0,0,0,57,113.31c.76-2.92,1.57-5.87,3.55-8.3a3.23,3.23,0,0,0,.68-2.24,4.32,4.32,0,0,1,1.05-3.09A2.56,2.56,0,0,0,62.87,97a7.07,7.07,0,0,1,1.77-7.9c.39-.4.38-1.18.55-1.78.43-2.35,1.78-3.1,4-2.29l1.86.31a7.21,7.21,0,0,1,2,.57Z" transform="translate(-0.96 -0.96)"/>
  </g>
  <g id="Oklahoma">
    <path class="cls-1" d="M655,565.06a5.48,5.48,0,0,1-1.07-.85c-1.14-1.45-2.48-2-4.17-1a2.53,2.53,0,0,1-3.07-.43c-.88-.68-1.87-1.22-2.78-1.88a3.94,3.94,0,0,0-5.26.12c-.73.58-1.31,1.45-2.71,1.45-1-2.3-3.4-3.86-4.34-6.47a2.81,2.81,0,0,0-2.61-1.85,24.51,24.51,0,0,0-4.77.09c-1.23.19-2.37,1-3.6,1.24-1.45.27-1.92-1.51-3.19-1.86a11,11,0,0,0-3.31-.37,6.1,6.1,0,0,1-3.72-.66,10,10,0,0,0-6.42-1.46,1.55,1.55,0,0,1-1.86-1.67,5.64,5.64,0,0,0-2.56-4.87c-1.38-1-2.74-1.7-4.4-.72-1,.62-2.21.2-3.28.4-1.9.35-3.41.11-4.51-1.74-.83-1.4-2.39-2.12-3.77-2.88a3.81,3.81,0,0,1-2.12-3.94c.18-3.19.09-6.41.47-9.57.7-5.74.47-11.49.69-17.24.3-7.66.64-15.32.78-23,.14-7.41-1.88-9.36-9.22-9.64-9.42-.35-18.85-.55-28.25-1.26-5.74-.44-11.5-.4-17.21-.93s-11.48-.73-17.23-.92a19.56,19.56,0,0,1-3.32-.41c-1.72-.35-2-.83-1.82-2.69.22-2.55.39-5.1.61-7.64a1.78,1.78,0,0,1,1.86-1.8c5.27,0,10.56-.25,15.8.44a60,60,0,0,0,6.68.49c6.07.12,12.15-.18,18.18.83a13.64,13.64,0,0,0,1.92.07c26.84.76,53.69,1.42,80.55,1.3a61.48,61.48,0,0,1,8.15.15,56.38,56.38,0,0,0,10,.38c20.77-1.08,41.55-.38,62.33-.84,1.28,0,2.56,0,3.83,0a1.8,1.8,0,0,1,1.79,1.88c.07,1.43.11,2.87.1,4.31a133.5,133.5,0,0,0,2.45,24.26c1.21,6.75,2.12,13.55,3.12,20.34a26.73,26.73,0,0,1,.13,3.35c.06,4,.1,8,.15,12,.08,6.55.11,13.09.61,19.63.36,4.61.07,9.27.09,13.91,0,6.38-.26,5.74-5.88,3.69a23.24,23.24,0,0,1-6.3-3.42c-1.25-1-2.55-1.92-3.88-2.81a4.08,4.08,0,0,0-5.3.09c-.49.4-.94.87-1.44,1.26a2.34,2.34,0,0,1-2.69.25,10,10,0,0,1-1.61-1,4.14,4.14,0,0,0-5.31,0,8.36,8.36,0,0,1-5.45,1.4,8.06,8.06,0,0,0-5.36,1.77,11.91,11.91,0,0,1-1.17.84c-4.28,2.55-4.32,2.6-8.18-.77-1.76-1.53-3.57-2.68-6-2.48-1.84.15-3.41-.62-5-1.31-1.93-.84-2.86-.48-4,1.28C656.44,562.94,656.24,564.3,655,565.06Z" transform="translate(-0.96 -0.96)"/>
  </g>
  <g id="Ohio">
    <path class="cls-1" d="M1044.43,270.54c2.78.29,2.86.28,3.24,2.45.66,3.77,1.18,7.57,1.81,11.35,1.12,6.61,2.29,13.21,3.41,19.82.21,1.26.23,2.55.4,3.82a3.16,3.16,0,0,1-.92,3c-1.39,1.26-1.21,2.86-.88,4.46a4.87,4.87,0,0,0,.43,1.37c1.59,2.91,2.35,5.74.45,8.95-.79,1.33-.31,3.14.2,4.69a3.25,3.25,0,0,1,0,2.79c-1.67,2.6-1.63,5.47-1.49,8.35a5.64,5.64,0,0,1-2.14,5,54.25,54.25,0,0,0-5,5.12,3.71,3.71,0,0,1-4.24,1.25c-1.76-.52-2.26-.08-3,1.52s-1.23,3.5-3,4.7c-.89.59-1.2,2.19-1.58,3.39-.58,1.78-1,3.61-1.5,5.56a7.16,7.16,0,0,1-1.4-.55,2,2,0,0,0-2.64.22,5.58,5.58,0,0,0-2.12,3.12c-.53,3-1.68,5.89-.71,9,.47,1.49.45,2.65-1,3.81-1.06.85-1.56,2.37-2.42,3.52a2.37,2.37,0,0,1-3.41.37,10.6,10.6,0,0,0-5.21-3.18c-1.26-.28-1.6-1.4-2-2.48-.78-2.15-2.72-2.34-4.31-1.43a15.1,15.1,0,0,0-3.07,2.26,4.85,4.85,0,0,1-4.39,1.38c-1.73-.28-3.45-.64-5.15-1.06-4.95-1.24-9.89-2.56-14.85-3.77a7.89,7.89,0,0,1-4.48-2.56,9,9,0,0,0-6.77-3.09c-.64,0-1.28,0-1.92-.1-4.54-.48-5.1-1-5.6-5.44-.76-6.65-1.38-13.32-2.17-20-.83-7-1.82-13.9-2.67-20.86-.46-3.79-.72-7.62-1.16-11.42s-.92-7.91-1.59-11.83c-.47-2.68-.11-5.44-1-8.07a1.35,1.35,0,0,1,.83-1.55,9.86,9.86,0,0,1,3.19-.94c7.21-1.31,14.41-2.68,21.61-4.05a3.18,3.18,0,0,0,2-1.18,19.72,19.72,0,0,1,8.18.94c.89.13,1.58.77,2.45.94,2,1.26,3.89,2.84,6.53,2a1.84,1.84,0,0,1,1.9.76v0c.88.8,2,.88,3.09,1.27l2.84.34c2.26.54,4.11-.47,5.94-1.58l2.59-1.35c1.42-.78,2.74-1.74,4.22-2.42l4.56.44c.82.31,1.48-.21,2.2-.4,1.85-1.27,4.26-2,4.73-4.64.11-1,1-1.55,1.37-2.39a24.35,24.35,0,0,1,6.92-5.94c.77-.45,1.39-1.12,2.17-1.57A27.85,27.85,0,0,0,1044.43,270.54Z" transform="translate(-0.96 -0.96)"/>
  </g>
  <g id="North_Dakota">
    <path class="cls-1" d="M652.48,79.88c.17.61.14,1.4.52,1.82,2.24,2.49,1.89,5.11,1,8-.87,2.7-1.55,5.55-.29,8.41a3.79,3.79,0,0,1,.12,1.9c-.46,4,.78,7.52,2.73,10.94a30.83,30.83,0,0,1,3.57,20.8,11.91,11.91,0,0,0,0,3.32c.54,4.59,1.33,9.14,1.73,13.75a33.5,33.5,0,0,0,2.67,10.64A26.65,26.65,0,0,1,667,170.61c0,1.8-.49,2.31-2.26,2.37-3,.1-6.07.09-9.11.13a30.73,30.73,0,0,0-6.2.4,8.31,8.31,0,0,1-3.33.08c-3-.65-6-.45-9.07-.48-8.79-.07-17.58-.1-26.37-.16-3.36,0-6.68-.24-10-.6-4.11-.46-8.3-.27-12.45-.34a101.29,101.29,0,0,1-12.9-.69c-3.45-.5-7-.23-10.53-.28a64,64,0,0,1-9.06-.66,74.35,74.35,0,0,0-9.57-.36,65.26,65.26,0,0,1-7.63-.56,84.42,84.42,0,0,0-9.56-.4,52.86,52.86,0,0,1-7.63-.58,57.15,57.15,0,0,0-7.65-.38c-1.59-.06-3.21,0-4.78-.2-1.72-.24-3.77-.27-5-1.25-1.51-1.19-.06-3.26,0-4.94.3-8.77.39-17.58,1.31-26.29.72-6.84.3-13.73,1.43-20.52a23.32,23.32,0,0,0,.23-3.83c0-5.92.92-11.77,1.4-17.65.42-5.07.54-10.17.78-15.26,0-.13-.16-.27-.24-.4-.84-1.12-.38-2.37-.39-3.58.76-1.34,2.05-1.15,3.28-1.13l9.63.66a30.39,30.39,0,0,0,4.76.26l9.67.63c2.2.57,4.47.07,6.68.44a49.29,49.29,0,0,0,10.58.59c2.85.5,5.76,0,8.62.38a62.22,62.22,0,0,0,12.5.58c3.5.51,7,0,10.54.36a87.92,87.92,0,0,0,15.39.55c6.71.84,13.48-.4,20.18.68,1.91.11,3.82.29,5.73.31,7.36.08,14.72.09,22.08.15C649.64,78.65,651.31,78.39,652.48,79.88Z" transform="translate(-0.96 -0.96)"/>
  </g>
  <g id="North_Carolina">
    <path class="cls-1" d="M1142.43,516.2c-3.26-2.55-6.47-5.18-9.8-7.64-6.43-4.73-13-9.24-19.37-14.11a9.33,9.33,0,0,0-7.6-1.88c-4.89.74-9.77,1.55-14.66,2.32a24.17,24.17,0,0,0-3.3.55c-3.77,1.14-6.71.88-8.21-3.57-.6-1.77-2.48-2.63-4.42-3.33-5.21-1.89-10.4-.74-15.58-.37-4,.29-7.93,1.32-11.89,1.29-6.21,0-11.61,2-16.7,5.18a19.58,19.58,0,0,1-6.48,2.92,22.91,22.91,0,0,0-4.83,2.07,17.09,17.09,0,0,1-6.47,1.57,51,51,0,0,0-9,1.12c-3.59.88-7.33.47-10.89,1.57-1.1.34-2.62.68-3.42-.75a2.93,2.93,0,0,1,1.29-3.73,10.89,10.89,0,0,0,5.22-7.1c.88-3.34,3.45-5.05,6.67-5.33a9.23,9.23,0,0,0,6-2.6,41,41,0,0,1,4.13-3.28c1.41-1,2.77-2.34,4.37-2.89,2.65-.91,4-2.43,4-5.23,0-.9.61-1.41,1.51-1.57a2.75,2.75,0,0,0,1.92-1.31,1.87,1.87,0,0,1,2.76-.92,2.63,2.63,0,0,0,3-.82,13.55,13.55,0,0,0,1.63-1.76c1.88-2.54,4.23-3.77,7.47-3,1.69.4,2.72-.6,3.32-2.08a21.54,21.54,0,0,1,4.4-7.3c1.47-1.52,1.7-3.7,1.83-5.83.11-1.6.54-1.95,2-2.08,8.42-.72,16.72-2.21,25-3.64,8.94-1.54,18-2.57,26.89-4.21,10.82-2,21.57-4.36,32.35-6.57,7.35-1.51,14.69-3,22-4.51,8.75-1.74,17.51-3.41,26.26-5.15a6.59,6.59,0,0,0,1.65-.88c1.4.19,3.14-.66,4.15.52,1.84,2.14,4.93,3.15,5.7,6.26.09.39.07.64-.32.79-.14.05-.32.14-.44.09-.59-.2-1.16-.46-1.75-.68a16.72,16.72,0,0,0-2.26-.77,1.66,1.66,0,0,0-1.89,2.33c.2.58.72,1.19.63,1.71-.15.87-1,1.14-1.85,1.22a3.6,3.6,0,0,0-3.07,2A5.13,5.13,0,0,1,1182,437a3.29,3.29,0,0,1-4.56-1.28c-.51-.8-.85-1.71-1.34-2.53a.92.92,0,0,0-.77-.37.81.81,0,0,0-.52.61c-.09,2.42,0,4.81,1.34,6.95.09.14.15.28.24.42,1.24,2,2.67,2.65,4.83,1.67,1.9-.87,3.62-2,5.86-1,.72.3,1.52-.31,2.06-1a4.36,4.36,0,0,1,2.65-1.91c1.06-.18,2.12.49,1.9,1.46a19.3,19.3,0,0,0-.34,5.72,1.66,1.66,0,0,0,1.45,1.63,2.27,2.27,0,0,0,2.77-1.3,19.15,19.15,0,0,0,.34-2.84,23.38,23.38,0,0,1,.17-2.38c.23-1.06,2.1-2.15,3-1.77a2.15,2.15,0,0,1,1.45,2.26,12.34,12.34,0,0,0-.2,3.79,1.38,1.38,0,0,1-.61,1.16c-1.68.73-2.09,2.28-2.72,3.75a37,37,0,0,1-2.36,4.71c-1.48,2.39-4,3.31-6.1,1.63-2-1.55-4.35-.92-6.23-2.17a1.12,1.12,0,0,0-1.56.69c-.81,2.08-2.49,2.17-4.33,2.11-1.6,0-3.2,0-4.79.08a1.39,1.39,0,0,0-1.44,1.54,1.31,1.31,0,0,0,1.16,1.31c2.69.39,5.37.74,8.07,1.05,1,.1,1.92,0,2.87.07,1.74.19,2.29,1.39,1.12,2.94a5.44,5.44,0,0,0-.86,3.57c0,3.05-2.65,4.51-5.22,2.83a13.72,13.72,0,0,0-5-1.56,1.64,1.64,0,0,0-1.2.54.91.91,0,0,0,.13,1.29c1,1,2.09,2,3.19,2.9a7.4,7.4,0,0,0,8.87.81c1.38-.8,2.68-1.73,4-2.57.83-.52,1.49-.07,2.13.46a1.43,1.43,0,0,1,.22,2.1c-.42.69-.9,1.34-1.25,2.05a2.55,2.55,0,0,1-2.66,1.63,7.36,7.36,0,0,0-5.64,2.11,8.23,8.23,0,0,1-5.19,2.26,4.34,4.34,0,0,0-4.46,2.9c-.59,1.48-1.59,1.17-2.71.57a1,1,0,0,0-1.48.71c-1.22,4.38-1.21,4.37-4.85,8a13.79,13.79,0,0,0-3.76,6.59c-.7,2.95-1.89,5.77-2.19,8.83a2.58,2.58,0,0,1-2.3,2.67C1150.83,513.17,1146.71,515,1142.43,516.2Z" transform="translate(-0.96 -0.96)"/>
  </g>
  <g id="New_York">
    <path class="cls-1" d="M1213.27,268.53c-.62,0-1.57.19-1.81-.12-2.2-3-5.49-3.63-8.74-4.52a133.65,133.65,0,0,1-20.17-7.52c-2.4-1.09-4-2.55-4.32-5.2a6.2,6.2,0,0,0-3.13-4.6c-2.27-1.44-4.62-2.77-7-4.09a4,4,0,0,0-3.25-.11c-17.26,5.43-35.1,8.27-52.73,12-12.16,2.58-24.35,5-36.54,7.49-2.34.47-4.7.86-7.06,1.19a1.65,1.65,0,0,1-2.06-1.48c-.2-1.27-.34-2.56-1.54-3.37-.41-1.79.5-3,1.68-4.21,2.92-3,5.82-5.93,8.68-8.94a30,30,0,0,0,5.68-7.65c.81-1.69,1-3-.46-4.73-1.68-2-2.43-4.79-4.39-6.77a4.15,4.15,0,0,1-.7-2.23A2.2,2.2,0,0,1,1077,221a23.27,23.27,0,0,0,7.7-3.71,7.41,7.41,0,0,1,2.69-1c3.11-.71,6.22-1.43,9.36-2s6-.68,8.83,1a4,4,0,0,0,4.53.1c3.46-2.33,7.41-2.94,11.4-3.08a7.9,7.9,0,0,0,6.44-3.53,20.67,20.67,0,0,0,1.79-2.82,8.2,8.2,0,0,1,5.33-4.42,4.59,4.59,0,0,0,2.86-6.12,8,8,0,0,0-1.15-2.09c-1.34-1.75-1.52-3.31,0-5.13s.89-3.23-1.4-4.62c-1-.58-2.28,0-3.09-1.12-.07-1.51.9-2.62,1.69-3.79a120,120,0,0,0,8-13c1.17-2.32,3.2-4,4.84-5.91,2.89-3.41,5.85-6.75,8.75-10.14a9.07,9.07,0,0,1,6.65-3.43c7.3-.17,14-2.74,21-4.4.62-.15,1.22-.38,1.83-.54,5.92-1.46,4.46-1.57,5.33,3.6a3.72,3.72,0,0,1,2.44,2.77c.78,6.07,5,11.58,2.85,18.15-.5,1.52.12,3.09,1,4.55a21.14,21.14,0,0,1,2.8,7.61c.41,2.77.8,5.31,3.69,6.72.82.4,1.1,1.54,1.39,2.45,2.94,9.3,5.83,18.6,5.35,28.55a110.21,110.21,0,0,0,4.4,36c1,3.28,1.58,6.54-.43,9.71-.74,1.18-.34,2.48-.18,3.74C1214.49,266.4,1213.9,267.46,1213.27,268.53Z" transform="translate(-0.96 -0.96)"/>
    <path class="cls-1" d="M1211.19,272.68a4.5,4.5,0,0,1,2.28-1.49c.63,0,1.38.23,1.86,0,4.39-2.38,9.29-3.8,13.22-7,1.26-1,2.93-1.2,4.45-1.64,1.37-.39,2.94-.4,4.11-1.11,1.9-1.16,2.85.15,4,1.08.86.7.83,1.38,0,1.83-2.82,1.47-5.61,3-8.51,4.3-2.17,1-4.49,1.62-6.09,3.56a2.63,2.63,0,0,1-1.16.83c-3.58,1.06-6.4,3.49-9.6,5.23a11,11,0,0,1-2.16,1,2.05,2.05,0,0,1-2.78-2.23C1210.85,275.52,1211,274.1,1211.19,272.68Z" transform="translate(-0.96 -0.96)"/>
  </g>
  <g id="New_Mexico">
    <path class="cls-1" d="M333.11,624.29a5.38,5.38,0,0,1-.83-4.11c1.18-7.89,2.41-15.77,3.49-23.67,1.14-8.38,2.08-16.78,3.21-25.17,1-7.11,2.09-14.21,3.07-21.32.87-6.33,1.64-12.66,2.47-19,.69-5.22,1.41-10.43,2.11-15.65l1.65-12.32c.91-6.8,1.85-13.59,2.72-20.39.78-6.16,1.48-12.34,2.24-18.52q1-8.07,2-16.13c.15-1.19.71-1.66,2-1.53,2.7.27,5.39.61,8.08.92q15.22,1.72,30.46,3.43c3.8.43,7.62.75,11.44,1.13,9.53.93,19.06,1.93,28.61,2.77,9.22.82,18.46,1.47,27.7,2.2,6.2.49,12.41,1,18.62,1.49,1.27.11,2.55.13,3.83.21,5.26.34,10.51.66,15.77,1,2,.14,2.45.54,2.33,2.75-.18,3.5.19,7.05-.71,10.5a7.55,7.55,0,0,0-.16,1.43c-.4,7.17-.45,14.39-1.29,21.51-.82,6.83-.58,13.7-1.43,20.53-.51,4.1-.16,8.31-.44,12.45-.62,9.07-.76,18.19-2.12,27.2-.17,1.11-.25,2.22-.31,3.34-.34,7.18-1.21,14.32-1.68,21.48-.31,4.78-1.16,9.49-1.36,14.29-.2,4.44-1,8.85-1.61,13.27-.31,2.36-.16,4.78-1.12,7.07-.49,1.17-1.05,1.94-2.37,1.91-5.58-.14-11.19.17-16.75-.64-.63-.09-1.26-.22-1.89-.27q-8.83-.62-17.68-1.21c-3.34-.22-6.62-.89-10-1.07-4.93-.25-9.83-1-14.75-1.47-1.59-.16-3.19-.24-4.78-.33a16.82,16.82,0,0,1-3.35-.19c-6.7-1.84-13.69-1-20.45-2.21a7.67,7.67,0,0,0-2.39,0,2.77,2.77,0,0,0-2.68,2.81c-.1,1.28-.11,2.56-.16,3.83l-3.88-.33a10.29,10.29,0,0,1-3-.41,16.67,16.67,0,0,0-5.67-.56,8.49,8.49,0,0,1-3-.46c-3.8-.48-7.59-1-11.38-1.42-3.49-.38-7-.73-10.48-1-2.38-.16-2.77.19-3.31,2.46-.32,1.39-.47,2.83-.71,4.24-.3,1.73-.6,3.45-.92,5.18a1.85,1.85,0,0,1-2,1.67l-2.87,0c-1.28-.31-2.64-.11-3.88-.61a9.54,9.54,0,0,0-3.79-.39c-1.29-.26-2.64-.07-3.89-.57A4.88,4.88,0,0,0,333.11,624.29Z" transform="translate(-0.96 -0.96)"/>
  </g>
  <g id="New_Jersey">
    <path class="cls-1" d="M1183.36,316c1.46-1.43,2.4-3.34,4.19-4.47a2.77,2.77,0,0,0,.94-1.07c1.66-3.52,4.34-6.25,6.85-9.12,1.34-1.54,1.24-3.11,0-4.79a28.09,28.09,0,0,1-2-2.64,5.05,5.05,0,0,0-4.54-3,3.16,3.16,0,0,1-3.08-1.83,9.54,9.54,0,0,0-2.57-2.8,3.4,3.4,0,0,1-.79-4.33c.39-.87.86-1.72,1.18-2.61a3.25,3.25,0,0,0,.07-2.79,4.22,4.22,0,0,1,.09-4.89,8.16,8.16,0,0,0,1.07-4.6,5.28,5.28,0,0,1,1.77-3.78,2.85,2.85,0,0,1,3.41-.94c1.48.57,3,1.16,4.48,1.65,3.33,1.07,6.71,2,10,3.13,4.49,1.53,3.93,1.15,4.66,5.54a6.44,6.44,0,0,1-1.92,3.77c-1.78,1.52-2.38,3.76-3.26,5.79a2.74,2.74,0,0,0,2.37,3.83c1.27.13,2.55.07,3.83.16a2,2,0,0,1,2,1.79c.4,2.52.77,5,1.07,7.58a3.43,3.43,0,0,1-.25,2.31c-1.51,1.73-.74,3.5-.69,5.38.07,2.51-.45,5-.49,7.59a4.64,4.64,0,0,1-2,3.71,4.28,4.28,0,0,0-1.89,3.7,10,10,0,0,1-2.54,6.57,9.45,9.45,0,0,0-1.68,4.37,52.3,52.3,0,0,1-2.12,6.83.85.85,0,0,1-.78.3.87.87,0,0,1-.47-.7c.06-1,.27-1.89.34-2.83.19-2.53-.82-3.65-3.25-3.64a4.25,4.25,0,0,0-1.43.09,4.5,4.5,0,0,1-5.51-1.5,8.76,8.76,0,0,0-2.36-1.6C1183.19,323.31,1182.48,321.79,1183.36,316Z" transform="translate(-0.96 -0.96)"/>
  </g>
  <g id="New_Hampshire">
    <path class="cls-1" d="M1264.12,182.7c.6,2.41-.37,4.57-1,6.77-.25.83-1.07,1.06-1.72,1.45-3.43,5.14-7,9.35-14.24,9.64-4.6.18-9.21,2.39-13.95,3.06-5.14.73-6.32-1.07-7.11-6.21-.81-5.31-.91-10.69-1.91-16a16.13,16.13,0,0,1,.58-9.4c1.93-4.59,2.1-9.34,1.63-14.09a8.66,8.66,0,0,1,3-8.06c3.68-3.26,5.19-7,2.87-11.93a14.75,14.75,0,0,1-.89-8.44c.44-2.86.88-5.71,1.31-8.57-.25-.27-.3-.5-.15-.66a.55.55,0,0,1,.38-.21c1.27-1.23,2.83-1,4.37-.93,4,4.85,4.8,11,6.75,16.67,4.31,12.47,9.89,24.56,12.13,37.7.36,2.13,2,3.21,3.42,4.4C1261.26,179.35,1263.16,180.57,1264.12,182.7Z" transform="translate(-0.96 -0.96)"/>
  </g>
  <g id="Nevada">
    <path class="cls-1" d="M107.57,284.18a4.67,4.67,0,0,0,.77-2.91c1.41-1.46,1.47-3.44,2-5.24Q115,258.5,119.71,241c.17-.62.29-1.25.48-1.86a1.51,1.51,0,0,1,1.86-1.08c1.09.2,2.18.47,3.26.74,7.12,1.75,14.22,3.58,21.37,5.24,11.16,2.58,22.34,5.07,33.52,7.56s22.08,4.95,33.16,7.25c12.95,2.7,25.95,5.21,38.93,7.8.62.12,1.27.16,1.88.34a1.48,1.48,0,0,1,1.16,1.8c-1.05,5.79-2.18,11.57-3.19,17.36s-2.54,11.47-2.93,17.35a2.53,2.53,0,0,1-.31,2.86,5.46,5.46,0,0,0-.94,1.59c-1.11,6.11-2.1,12.24-3.22,18.34-1.17,6.42-2.47,12.82-3.68,19.23-1.51,8-2.95,16-4.49,24-1.89,9.7-3.92,19.38-5.76,29.1-2.72,14.4-5.31,28.83-8,43.23-.58,3.14-1.33,6.24-2,9.36a4.43,4.43,0,0,1-1.42,2.62c-1.78-.75-2.85-2.42-4.27-3.64-3.21-2.74-7.08-2.36-9.46,1.11a8.79,8.79,0,0,0-1.83,5.36,49.88,49.88,0,0,1-1,13.34,23.72,23.72,0,0,0-.14,4.78c0,1,0,1.92-.05,2.88-.06,1.11,0,2.48-1.12,3-1.35.57-1.93-.83-2.54-1.66-1.71-2.31-3.3-4.7-4.93-7.07-2.45-3.54-4.87-7.11-7.34-10.65-9.23-13.22-18.5-26.42-27.69-39.67-8.29-11.94-16.44-24-24.74-35.9-10.66-15.34-21.42-30.62-32.12-45.93-1.74-2.49-3.28-5.12-5.11-7.54a5.4,5.4,0,0,1-.83-5c1-3.71,1.82-7.45,3-11.07,2-5.91,3.4-12,5.09-18,.86-3.07,1.64-6.16,2.53-9.23A18,18,0,0,0,107.57,284.18Z" transform="translate(-0.96 -0.96)"/>
  </g>
  <g id="Nebraska">
    <path class="cls-1" d="M580.89,268.5a2.93,2.93,0,0,0,2.59.93c3.36.06,6.71.08,10.07.15,5.1.11,10.2-.16,15.3.72a43.44,43.44,0,0,0,8.62.23c3.42-.1,6.48.27,9.3,2.72,1.73,1.49,4.27,2.14,6.53,2.88,1.81.59,3.78.84,5.47-.57a2.3,2.3,0,0,1,2.2-.47,13.29,13.29,0,0,0,7.1-.27,4.75,4.75,0,0,1,4.91,1,5.83,5.83,0,0,0,2.55,1.26A19.52,19.52,0,0,1,666,283.35a6.15,6.15,0,0,0,3.69,2c1.72.29,2.34,1.43,2.31,3.09,0,1.28.16,2.57.06,3.84a9.28,9.28,0,0,0,1.9,6.26c1.46,2.09,2.74,4.31,4.15,6.43.92,1.38,1.55,2.67.95,4.45a13,13,0,0,0-.19,3.81,5,5,0,0,0,2.15,4.56c1.18.77,1.42,1.93,1.8,3.19,1.78,5.89,1.91,11.93,2,18,0,2.07-.28,4.2,1.33,5.91.36,3.44,1.6,6.39,4.58,8.39a19.83,19.83,0,0,0,3.77,6.62,4.24,4.24,0,0,1,.56,1.8c.24,1.16-.26,2-1.37,2.06-1.59.13-3.19.19-4.79.19q-28,.07-56.12.13c-5.59,0-11.19,0-16.78-.14-10.86-.29-21.73-.4-32.56-1.15-6.22-.44-12.44-.54-18.66-.89-8.44-.48-16.87-1.15-25.3-1.77-1.25-.09-1.81-.69-1.58-1.86.55-2.86.3-5.74.42-8.61.17-3.82,0-7.65.75-11.46a22.48,22.48,0,0,0,.06-5.74,3.45,3.45,0,0,0-3.07-3.19,9.74,9.74,0,0,0-1.43-.12c-8.3-.29-16.6-.53-24.9-.9-5.1-.22-10.2-.62-15.3-1-1.74-.13-2.29-.67-2.19-2.45.25-4.93-.44-9.91.77-14.8a11.87,11.87,0,0,0,.21-2.39c.23-5.42.58-10.84.81-16.24.32-7.5,1.27-15,1.25-22.47a10.92,10.92,0,0,1,.18-1.9,1.41,1.41,0,0,1,1.27-1.23,17.27,17.27,0,0,1,2.38-.14,96.23,96.23,0,0,1,12.91.7,72.71,72.71,0,0,0,9.58.27c3.19.06,6.38-.07,9.53.72a14.91,14.91,0,0,0,3.35.19q6,.09,12,.14a72.85,72.85,0,0,1,8.59.55c2.77.37,5.69,1,8.47-.29C569.38,266.12,575.15,267,580.89,268.5Z" transform="translate(-0.96 -0.96)"/>
  </g>
  <g id="Montana">
    <path class="cls-1" d="M272.73,40.84l2.8.42a7,7,0,0,1,2,.44c7.82,1.48,15.64,3,23.47,4.42,9.88,1.8,19.76,3.59,29.66,5.28,8.64,1.47,17.31,2.82,26,4.17,10.07,1.57,20.15,3.13,30.25,4.58,6,.87,12,1.49,18,2.25,6.32.81,12.64,1.61,18.95,2.5,3.32.46,6.66.68,10,1.11,7.74,1,15.54,1.55,23.31,2.3,5.39.52,10.77,1.07,16.16,1.61a15.88,15.88,0,0,0,2.84.18c2.91.1,5.72,1.13,8.67.81a15,15,0,0,0,1.89.15c2.61,0,5.12,1.06,7.75.67a15.49,15.49,0,0,0,3.78.3l7.76.64c1,.32,2,.59,2.47,1.66a5,5,0,0,1-.16,3.88c-1.7,6.2-1.4,12.61-2,18.93-1.14,12.86-1.46,25.77-2.73,38.63-.58,5.87-.46,11.78-.92,17.68-1,12.24-1.19,24.54-2.09,36.8-.49,6.74-1.86,8.35-9,7.82-12.27-.92-24.52-2-36.77-3.16-18.92-1.76-37.87-3.34-56.77-5.4-16.81-1.84-33.69-3.17-50.22-7-6.5-1.52-8.31-.36-9.57,6.14-.59,3-1.43,5.23-4.85,2.34-1.48-1.25-2.95-1.17-4.13.42-1.95,2.64-4.57,2.83-7.31,1.85-7.76-2.76-15.72-1.23-23.58-1.08-2.84.06-3.65-1-4.08-3.37-.81-4.3-2-8.35-6.5-10.44-1.52-.71-1.59-2.27-1.35-3.77a17.39,17.39,0,0,0-2.08-10.65c-1.46-2.92-1.6-6.17-2.44-9.25-1.23-4.45-3-5.27-6.8-3-2.12,1.28-4.18,2.67-6.53.67s-2.12-4.79-.89-7a25.16,25.16,0,0,0,3-12.75c0-4,2.61-7.48,4.38-11,1.23-2.52,1.63-4.29-1.9-5.33s-5.55-4.24-7.47-7.16c-4.19-6.41-7.36-13.46-12.19-19.48a3.27,3.27,0,0,1-.91-2.18c.55-6.45-2.46-12.16-3.75-18.22-1.13-5.35.82-10.46,1.46-15.66.6-4.84.76-9.94,4.16-14l.68-1.27a2.54,2.54,0,0,1,2.11-.33l2.81.42a6.45,6.45,0,0,1,2.92.74l1.86.26a10.54,10.54,0,0,1,2,.41,5.31,5.31,0,0,0,2.8.51A8.08,8.08,0,0,1,272.73,40.84Z" transform="translate(-0.96 -0.96)"/>
  </g>
  <g id="Missouri">
    <path class="cls-1" d="M832.61,487.76c.6-2.3,2.1-3.18,2.83-4.58.81-1.56,1.74-3,1.73-4.9a5.84,5.84,0,0,0-4.15-5.74,8.66,8.66,0,0,0-2.38-.27c-5.43.07-10.88-.42-16.25.76a5.77,5.77,0,0,1-1.43.13c-9-.24-17.86,1-26.82,1.18-11.18.17-22.38.43-33.53,1.2-7.67.53-15.33.44-23,.82-2.07.1-4.13.43-6.2.59a2,2,0,0,1-2.26-1.93c-.09-.95-.07-1.92-.07-2.88-.15-17.59-.25-35.18-.45-52.78-.08-7.66-.43-15.33-.55-23-.05-2.69-1-4.64-3.55-5.67a6.4,6.4,0,0,1-3.9-3.94c-.61-1.73-2.06-2.76-3.49-3.83-2.71-2-2.4-5.12.6-6.88.68-.4,1.45-.68,2.09-1.14a3,3,0,0,0,1-3.46,14.52,14.52,0,0,0-3.2-4.12,1.56,1.56,0,0,0-1.81-.1c-3.45,1.76-5.81.14-7.8-2.52a13.27,13.27,0,0,1-2-3.26c-1.27-3.5-3.75-6.31-5.31-9.65a14.91,14.91,0,0,0-2.11-2.58c-.37-.48,0-1.46.59-1.49,1.59-.11,3.19-.21,4.78-.22,11.52-.1,23,.15,34.54-.35,10.23-.46,20.48-.17,30.67-.9,5.55-.41,11.14-.5,16.68-1.49,6.16-1.1,7.87-.23,11.93,4.65a4.06,4.06,0,0,1,1.16,3c0,.48,0,1-.07,1.44-.52,5.6,1.11,10.75,3.34,15.75a10.6,10.6,0,0,0,3.33,4.64c3.57,2.46,6.17,6,9.82,8.4,2.85,1.88,4.87,4.52,4.94,8.32a13.71,13.71,0,0,0,1.35,4.56c.65,1.64,1.68,2.1,3.46,1.77.62-.11,1.21-.4,1.83-.56a9.79,9.79,0,0,1,5.63.44c1.65.55,2.32,1.29,2,3.2a9.08,9.08,0,0,1-.68,2.28c-1.4,3.08-2,6.4-2.83,9.63a8,8,0,0,0,2.68,8.64c1.33,1.15,2.74,2.2,4.14,3.25s3.07,1.73,3.89,3.45a2.21,2.21,0,0,0,1.9,1.31c2,0,3.22,1.21,4.46,2.48A7.83,7.83,0,0,0,842,433c2.3,1.18,3.81,2.82,4,5.54a3.38,3.38,0,0,0,.9,1.65,2.75,2.75,0,0,1,.22,3.53c-1.21,1.83-.93,3.56.08,5.38s1.78,3.75,3.29,5.26a7.21,7.21,0,0,0,4,2.34c1.92.32,2,.67,2.13,2.53.37,6.45-.34,8-6.38,10.65-2,.89-2.74,1.86-2.67,3.81a4.66,4.66,0,0,1-.79,3.18,5.56,5.56,0,0,0-1,5.35c.63,2.3-1,4.33-3.34,4.95A29.1,29.1,0,0,1,832.61,487.76Z" transform="translate(-0.96 -0.96)"/>
  </g>
  <g id="Mississippi">
    <path class="cls-1" d="M865,673c-.63-1.62-1.78-3-2.12-4.79a9.39,9.39,0,0,0-2.58-4.53,9.16,9.16,0,0,1-2-10.16,14.9,14.9,0,0,0,.6-1.82,3.52,3.52,0,0,0-2.67-4.35,6.9,6.9,0,0,0-3.32,0c-2.5.79-5.09.41-7.59.8-7.75,1.19-15.62.45-23.38,1.63-3.44.52-7,.19-10.53.28a2.35,2.35,0,0,1-2.53-1.73,14.63,14.63,0,0,0-1.07-2.13c-.45-.81-.21-1.37.29-2.13,1.41-2.13,2.52-4.37,1.4-7.07a2.52,2.52,0,0,1,.88-3c2.24-1.81,2.63-4.62,3.49-7a8.25,8.25,0,0,1,2.06-3.55,18.55,18.55,0,0,1,2.07-2c2.22-1.51,2.51-4,3.21-6.22a2.21,2.21,0,0,0-.62-2.19c-.68-.79-.44-1.43.3-2,1.11-.83,2.77-1.25,2.66-3-.09-1.53-1.67-1.79-2.57-2.62-1.36-1.25-1.43-2-.37-3.7.17-.26.46-.45.62-.72.88-1.42.61-2.19-1.18-2.74-.95-.3-1.94-.3-1.41-1.73a1.88,1.88,0,0,0-.13-1.84c-1-1.33-1.64-2.65-.84-4.37a1.64,1.64,0,0,0-.84-2c-1.68-1-2.08-2.43-1.16-4.07,1.64-2.92,1.42-5.69.05-8.69a60.71,60.71,0,0,1-2.3-7.26,1.94,1.94,0,0,1,.32-1.79,31.3,31.3,0,0,1,2.77-3.82,3.73,3.73,0,0,0,1-4.34c-.59-1.51,0-2.45,1.36-3.07a11.74,11.74,0,0,0,1.27-.66c2.33-1.47,2.41-1.66.95-4.49-.56-1.1-.3-2,.67-2.39a4.23,4.23,0,0,0,2.82-3.53c.19-1.21,1.37-1.69,2.27-2.33a4.2,4.2,0,0,0,2-4.43,25.66,25.66,0,0,1,.63-7.05,4.41,4.41,0,0,1,2.65-3.21c1.88-.89,3.91-1.57,4.31-4.07,0-.29.69-.63,1.1-.71a29.23,29.23,0,0,1,5.67-.85c5.77.14,11.45-.88,17.19-1.17,6.52-.33,13-1.12,19.52-1.66a56.23,56.23,0,0,1,6.22-.23,4,4,0,0,1,3.77,3.65,19.67,19.67,0,0,1,.09,2.87c-.13,6.23.28,12.46-.63,18.67a42.2,42.2,0,0,0-.17,5.74c-.22,16-1.5,31.93-.78,47.91.45,10.06.26,20.13.86,30.17a160.38,160.38,0,0,0,2.31,19c1.07,6,1.82,12,2.72,18a1.78,1.78,0,0,1-1.48,2,7.8,7.8,0,0,0-2.81,0,7.51,7.51,0,0,1-3.66-.48,8.2,8.2,0,0,0-5.91-.31c-.85.34-1.42,1.19-2.38,1.33l-2.39.85a18.45,18.45,0,0,1-3.91.5,3,3,0,0,0-2.68,1.55q-.93,1.32-1.95,2.58A2.13,2.13,0,0,1,865,673Z" transform="translate(-0.96 -0.96)"/>
  </g>
  <g id="Minnesota">
    <path class="cls-1" d="M766.84,144.68c-4.88,3.12-6.26,5.9-5.09,11.15a29.14,29.14,0,0,1,.43,8.58c-.18,2.4-1.15,4.29-3.57,5.19a20.44,20.44,0,0,0-2.17,1c-1.93,1-3.47,2.18-4,4.49-.39,1.91-1.71,3.39-2.71,5-1.34,2.2-1.06,3.41.93,4.92.63.47,1.34.86,2,1.35a3.62,3.62,0,0,1,1.38,4.58,19.7,19.7,0,0,0-1.26,7.52c.06,1.27-.13,2.58.46,3.77a4.68,4.68,0,0,1-.07,4.16c-1.24,2.78-.39,5,2,6.66,2.56,1.81,4.59,4.53,8.1,4.75,2.58,2.67,5.94,4.16,9.1,6,.77.44,1.16,1.5,1.79,2.21,2.86,3.21,5.44,6.8,10.23,7.38,1.16.14,1.91,1.14,2.59,2a15.43,15.43,0,0,1,3.33,10.27,1.87,1.87,0,0,1-1.71,1.95,6.9,6.9,0,0,1-1.42.18c-8.64-.14-17.18,1.37-25.84,1.2-7-.14-14.05.61-21.07.69-18.71.19-37.39,1.37-56.1,1.18-2.7,0-5.41.4-8.12.47-1.77,0-2.32-.46-2.58-2.16a33.09,33.09,0,0,1-.37-4.77c-.12-8.15-.13-16.31-.3-24.46-.17-7.67-.53-15.33-.74-23a6.61,6.61,0,0,0-3.69-6.22c-.43-.23-.86-.45-1.27-.7-3.6-2.19-4.28-5.77-1.25-8.66,3.37-3.21,4-6.85,3.58-11.3a49.07,49.07,0,0,0-3-13.47c-1-2.46-1.15-5.28-1.55-8-1-6.47-2.06-12.92-1.69-19.51.13-2.23.08-4.48,0-6.72A20.22,20.22,0,0,0,661,113.7c-.29-.57-.59-1.14-.86-1.72-3.41-7.42-3.69-5.66-3.76-13.61,0-3.36-.21-6.61.76-9.88.7-2.34.82-4.74-.95-6.82a3.3,3.3,0,0,1-.53-3.18c12.46.17,24.92.35,37.37-.3,1.58-.77,3.59.08,5-1.33.85-1.08.7-2.37.75-3.61.07-1.73.07-3.45.15-5.18a1.62,1.62,0,0,1,1.73-1.78c.94,0,1.88,0,2.82.07a2.33,2.33,0,0,1,1.32,1.76,12.47,12.47,0,0,0,.32,4.75,28.55,28.55,0,0,1,.8,2.88c.58,2.48,1.07,5,1.74,7.44.56,2.06,1.89,3.35,4.18,3.17a11.24,11.24,0,0,1,5.54,1.18,28.65,28.65,0,0,0,5,1.52,11.11,11.11,0,0,1,3.15,1,9,9,0,0,0,10.3-.42c4.42-3,9.15-2,13.77-.29.55.2,1,.8,1.38,1.26,1.94,2.11,3.86,4.24,5.8,6.35a8,8,0,0,0,1.08.94,2.8,2.8,0,0,0,3.91,0c2.45-1.8,2.47-1.83,4.75-.31a31.2,31.2,0,0,1,5.62,4.41,9,9,0,0,0,10.61,1.59c2.25-1.19,4.29-2.77,6.44-4.14,1.25-.79,1.85-.69,2.95.4a3.87,3.87,0,0,1,.62.72c1,1.85,2.44,2.16,4.45,1.52,2.42-.78,5-1.16,7.45-1.77a3.53,3.53,0,0,1,3.19.44c1.14.87,1.84,2.35,3.28,2.74a28.86,28.86,0,0,0,4.22.54c-2.68,2.6-5,4.37-8.12,5.11-5.44,1.3-9.6,5-14.56,7.2a2.92,2.92,0,0,0-1.1.9c-3.06,4.1-7.4,7.12-9.81,11.75-1.5,2.89-4.27,4.72-6.09,7.35-.69.59-1.31,1.27-2,1.84-1.74,1.27-3.48,2.52-5.2,3.81A4,4,0,0,0,766.84,144.68Z" transform="translate(-0.96 -0.96)"/>
  </g>
  <g id="Michigan">
    <path class="cls-1" d="M978.3,286.49c-4-.08-7.81,1.34-11.73,1.93-4.25.64-8.43,1.69-12.66,2.48-1.55.28-3.2.64-4.72,0-3.41-1.53-7-1.07-10.37-.49a164,164,0,0,1-24.2,2.71c-1.23,0-2.62-.27-3.46,1.08-1.78,1.57-3.73,2.09-5.93.9-1.41-3.07.88-5.43,1.56-8.1a53.21,53.21,0,0,0,5-14.92,21.49,21.49,0,0,0,.29-5.25c-.11-2.55-.25-5.11-.27-7.66a9.5,9.5,0,0,0-.76-4.22c-1.62-3.25-2.64-6.74-4.74-9.82-1.77-2.6-2.86-5.68-4.22-8.56a4.61,4.61,0,0,1,0-4.6c1.66-2.65,1.18-5.17-.26-7.69-.32-.56-.58-1.15-.86-1.72a2.38,2.38,0,0,1,.26-2.69,25,25,0,0,0,1.76-2.26,13.51,13.51,0,0,0,2.42-8.61c-.17-1.75.12-3.59-.33-5.25-.64-2.4-.94-4.35,1.91-5.45.78-.3,1-1.18,1.16-2a10.25,10.25,0,0,1,.63-2.28,7.46,7.46,0,0,1,6.28-3.5.88.88,0,0,1,.61.59c0,.79,0,1.58,0,2.37a4.36,4.36,0,0,0,.21,1.4,1.06,1.06,0,0,0,.68.58,4.78,4.78,0,0,0,5.2-3.11,19,19,0,0,0,1-7.55,21.47,21.47,0,0,1-.23-2.86c.09-2.47,1.18-4.28,3.68-5,.46-.14.95-.16,1.4-.32,1.69-.57,2.31-1.66,1.64-3.3a32.87,32.87,0,0,0-1.88-3.3c-.87-1.56-.75-2.14.58-3.27,1.09-.93,2.18-1.87,3.29-2.78,2.26-1.85,3.06-2,5.49-.21,2,1.51,3.9,2.74,6.55,1.88a2.07,2.07,0,0,1,2.19.7c3,3.58,7.49,3.94,11.41,5.57a2.91,2.91,0,0,0,.94.18,9.23,9.23,0,0,1,7.62,4.84c1,1.58,1.64,2.54.17,4.07a2.49,2.49,0,0,0,.18,3.84c3.17,2.85,3.69,6.55,3.65,10.47a9.59,9.59,0,0,0,.42,4.26,4.34,4.34,0,0,1-1.2,5.24,9,9,0,0,0-3.32,6.59,3.65,3.65,0,0,1-3.09,3.73c-2.35.52-3.4,2.16-3.25,4.6.12,1.91,0,3.83.2,5.74a2.19,2.19,0,0,0,1.86,1.93,1.31,1.31,0,0,0,.47.09c2.23-.29,4.26,1.67,6.54.57.56-.27,4.52-6.6,4.76-7.61s.32-1.89.49-2.83a2.68,2.68,0,0,1,1.73-2.14,21.75,21.75,0,0,0,5.07-2.67,3.32,3.32,0,0,1,3.63-.15,10.24,10.24,0,0,1,6.13,8.5,13.63,13.63,0,0,1,0,2.39,9.41,9.41,0,0,0,1.93,6.29,15.53,15.53,0,0,1,2.62,6.11c.74,3.11,1.52,6.21,2.3,9.31a16.38,16.38,0,0,1,.11,8.05c-.37,1.51-1.12,1.81-2.79,1.32-2.31-.67-2.73-.46-3.6,1.67a9.74,9.74,0,0,0-.9,4.66,4.83,4.83,0,0,1-1.63,4.29,8.49,8.49,0,0,0-2.83,6.87,13.42,13.42,0,0,1-2.55,8.08C981.18,282.29,980.18,284.69,978.3,286.49Z" transform="translate(-0.96 -0.96)"/>
  </g>
  <g id="Massachusetts">
    <path class="cls-1" d="M1263.2,192.23c2.35,1.08,3,3.68,4.66,5.35a1.33,1.33,0,0,1-.13,1.27c-2.38,2.37-2.4,5.45-2.52,8.44-.08,2.22,1,3.26,3.21,3.29,1.73,0,3.48-.59,5,.88,1.28,1.25,1.41,2.78,1.48,4.4,0,.92.83,1.33,1.57,1.63a6.77,6.77,0,0,1,3.76,2.78,4.23,4.23,0,0,0,3.24,2.57,8.26,8.26,0,0,0,5.91-1.45c1.14-.86,2.15-1.9,3.26-2.8a1,1,0,0,1,.88,0,1.38,1.38,0,0,1,.42.81,2,2,0,0,1-.7,2.14,8.35,8.35,0,0,1-2,1.25,21.82,21.82,0,0,0-6.68,4.59,14,14,0,0,1-1.87,1.48,1.59,1.59,0,0,1-2.6-1,8.5,8.5,0,0,1-.19-1.42c-.09-1.15-.22-2.43-1.48-2.74s-2,.78-2.4,1.86c-.67,1.9-2.21,3.1-3.42,4.57a7.4,7.4,0,0,1-3.22,2c-.73.29-1.17-.23-1.63-.68-.66-1.68-.52-4.11-3.42-3.75l-.1-.1c-3.73-6.7-8.89-6.46-15.7-4.65-10.46,2.77-21,5.62-31.67,7.53-5.56,1-6.45.45-6.59-5.33q-.12-4.56,0-9.11c.13-5.27,1.26-6.62,6.23-8.28,7.91-2.65,16.16-3.76,24.29-5.44,3.89-.8,7.67-2.19,11.74-2.21,2.66,0,4.25-2,5.51-4.12S1260.75,192.5,1263.2,192.23Z" transform="translate(-0.96 -0.96)"/>
  </g>
  <g id="Maryland">
    <path class="cls-1" d="M1148,362.93c.67-1.27,1.37-2.52,2-3.8,2.8-5.39.51-9.52-4.66-12.05a25.31,25.31,0,0,0-5-1.62c-1-.25-1.75-.62-1.93-1.76-.47-3-2.65-4.43-5.29-4.75-3.61-.43-4.28-3.32-5.64-5.74.6-2.12-1-2.67-2.77-3.57,5.19-1.11,10-2.19,14.92-3.18,5.61-1.14,11.23-2.22,16.85-3.3,4.68-.89,9.37-1.74,14-2.6a6.22,6.22,0,0,1,1-.08c.79,0,1.68-.14,2,.79.53,1.33-.93,1.41-1.43,2.11a17.33,17.33,0,0,0-1.91-.07,2.11,2.11,0,0,0-2.18,2.09,7.62,7.62,0,0,0,.07,1.43,1.85,1.85,0,0,1-1.77,2.31,4.46,4.46,0,0,0-3.88,3.7,3.75,3.75,0,0,1-2.54,3.06c-1.65.77-1.66,2.1-.24,3.38a6.71,6.71,0,0,0,1.16.84c1.74,1,2.17,2.26,1.84,4.37-.66,4.24-1,8.57,1,12.69.53,1.09,1.12,2.49-.12,3.54s-1,1.95,0,2.81a46.82,46.82,0,0,0,3.7,3,8.79,8.79,0,0,1,3,3.05l0-.05c-.94.11-1.88.17-2.81.33a8.88,8.88,0,0,1-7.45-2.14,45.38,45.38,0,0,0-5.69-4.17c-1.11-.4-2.23-.88-3.18.31l-1,1.95a1.8,1.8,0,0,1-2.18,0A2.42,2.42,0,0,1,1148,362.93Z" transform="translate(-0.96 -0.96)"/>
    <path class="cls-1" d="M1173.07,330.05c.42-.19.85-.36,1.26-.58a11.4,11.4,0,0,0,1.08-.73A15.11,15.11,0,0,1,1177,333c1.7,6.28,3.24,12.61,5.21,18.81,2,6.38,1.51,7.26,9.29,5.8a30.44,30.44,0,0,1,8.53-.49,3,3,0,0,0,0,.94,4.46,4.46,0,0,1-.55,2,7.16,7.16,0,0,0-2.94,5.17c-.16,1.72-.36,3.45-.44,5.17a10.4,10.4,0,0,1-1.19,5,13,13,0,0,0-1.73,7.27c0,1.69-.32,3-2,3.88-.74.37-1.11,1.46-1.65,2.23a1.37,1.37,0,0,1-2,0,14.5,14.5,0,0,1,2.79-10.79,3,3,0,0,0-3.08-4.63l-2.65.46c-.55-1.6.7-2.24,1-3.23.5-1.52.41-2.83-1.06-3.75-.69-.42-1.48-.8-1.09-1.8.76-2-.85-2.43-1.94-3.27-1.24-.95-2.16-.58-3.39.25-1.9,1.28-5.14-.22-5.64-2.41a7.56,7.56,0,0,1,.21-4.24,2.56,2.56,0,0,0-.65-3.06c-1.85-1.47-1.45-2.66,0-4.28,1.11-1.28.77-2.27-1-3.43-1-.69-1.14-1.13-.61-2.23,1.23-2.58,1.18-2.65-1-4.67a2.28,2.28,0,0,1-.92-1.57,8.26,8.26,0,0,1,1.25-4.53c.65-1.08,1.8-1.2,2.88-1.45C1172.77,330.16,1172.92,330.1,1173.07,330.05Z" transform="translate(-0.96 -0.96)"/>
    <path class="cls-1" d="M1100.54,334.36c1,0,1.34.51,1.17,1.22a22.08,22.08,0,0,1-1,3.17,2.68,2.68,0,0,1-2.47,1.93c-2,.05-3.15,1.38-4.13,2.86a21,21,0,0,1-3.67,4.36,1,1,0,0,1-1.53-.45,32.27,32.27,0,0,1-1.22-8.46,2,2,0,0,1,1.86-2.36c2.31-.55,4.65-1,7-1.47Z" transform="translate(-0.96 -0.96)"/>
    <path class="cls-2" d="M1112.57,329.87c-3.85,1.66-7.73,3.23-12,3.22a1.5,1.5,0,0,0,0,3c4.8,0,9.16-1.76,13.5-3.63,1.77-.76.25-3.35-1.51-2.59Z" transform="translate(-0.96 -0.96)"/>
    <path class="cls-1" d="M1169.93,322.83a64.91,64.91,0,0,1,2.54,8.86c.4,1.89,3.29,1.09,2.89-.8a66.19,66.19,0,0,0-2.53-8.85c-.66-1.8-3.56-1-2.9.79Z" transform="translate(-0.96 -0.96)"/>
    <path class="cls-2" d="M1100,335.09c10-1.26,20.86-7.58,30.62-2.42,1.71.91,3.22-1.68,1.51-2.59-10.63-5.63-21.29.64-32.13,2-1.89.24-1.92,3.24,0,3Z" transform="translate(-0.96 -0.96)"/>
    <path class="cls-2" d="M1101.36,334.33a1.5,1.5,0,0,0,0-3,1.5,1.5,0,0,0,0,3Z" transform="translate(-0.96 -0.96)"/>
  </g>
  <g id="Maine">
    <path class="cls-1" d="M1239.38,119c0-.79-.28-1.94.53-2.18,3.67-1.09,4.09-4.61,5.66-7.26a2.48,2.48,0,0,0,.25-2.32c-1.11-2.22,0-4,.91-5.87s2.06-4,3.12-6a7.35,7.35,0,0,0,.52-6.4,48,48,0,0,1-1.86-8.88c-.25-1.75.53-3.44,1.06-5.11a13.26,13.26,0,0,0,.77-7c-.45-2.06.35-4.14.94-6.1a173.73,173.73,0,0,1,7.07-18.85c.06-.15.14-.29.21-.43,1.55-3.1,2.7-3.21,4.61-.46a24.12,24.12,0,0,0,1.69,2.32c1.36,1.49,2.25,1.62,4.1.43,3.08-2,6.22-3.83,8.75-6.56a3.82,3.82,0,0,1,4.44-.85c3.3,1.32,6.1,3.48,9.07,5.36a4.18,4.18,0,0,1,1.39,2.46c3.88,11.33,8.72,22.35,11,34.2.58,3.06,2.28,4.81,5.4,5.19,1,.11,1.88.4,2.83.51a2.36,2.36,0,0,1,2.22,2,71.22,71.22,0,0,0,2.93,7.54,3.57,3.57,0,0,0,3.77,2.39,4.62,4.62,0,0,1,2.33.21,11.65,11.65,0,0,1,2.57,2.1c1,.95.4,2,.2,3.13-.42,2.19-.25,2.37,1.84,3.07.55.19,1.47,0,1.45.85a4.75,4.75,0,0,1-.73,1.68,3.47,3.47,0,0,1-.29.38c-1.14,1.74-3.24,2-4.8,3s-1.32,3.62-3.33,4.56a3.71,3.71,0,0,1-3.12.46c-1.3-.48-2.15.28-2.57,1.47-.25.74-.23,1.59-.53,2.32-.67,1.59-1.72,2-3.67,1.45a7.15,7.15,0,0,0-9.09,5.94c-.08.48-.09,1-.18,1.43a1.2,1.2,0,0,1-1.38,1,1.33,1.33,0,0,1-1.33-1.14,20.55,20.55,0,0,0-.72-3.24,2,2,0,0,0-3.48-.26,10.7,10.7,0,0,0-1.79,5.87c0,2.24,0,4.48-.12,6.72a29.27,29.27,0,0,1-.51,4.27c-.34,1.8-1,2.61-2.92,2.37a5.27,5.27,0,0,0-1.43,0,1.65,1.65,0,0,0-1.56,1.53c-.12,1.11-.07,2.23-.26,3.32a1.51,1.51,0,0,1-1,.89,1.91,1.91,0,0,1-1.21-.47c-.23-.16-.31-.54-.42-.84-.37-1-.91-1.8-2.08-1.4a2.58,2.58,0,0,0-1.5,2.28,3.09,3.09,0,0,0,.15,1.41c.33.95.63,2.16-.36,2.57-1.19.5-2.43,1.35-4,.4-2-1.24-2.7-1-3.48,1.09-.69,1.79-1.23,3.63-1.83,5.46a2.21,2.21,0,0,0,0,1.85,2.18,2.18,0,0,1,.24,2.26c-1.3,2.17.43,5-1.84,7-2,1.72-2.37,4-2,6.59.16,1-.15,1.93-1.52,1.83-4.64-2.25-7.66-5.38-8.68-10.92-1.55-8.45-5.37-16.28-8.08-24.42C1244.85,136.6,1241.26,128.09,1239.38,119Z" transform="translate(-0.96 -0.96)"/>
  </g>
  <g id="Louisiana">
    <path class="cls-1" d="M752.68,693.56a5,5,0,0,0-3.26.31c-.76.23-1.62.55-2.24-.17-.79-.9-.17-1.8.27-2.62a29.14,29.14,0,0,1,2.41-4.13c2.15-2.71,1.86-5.62,1-8.62a16.91,16.91,0,0,0-.77-1.75,2.41,2.41,0,0,1,.3-2.69,3,3,0,0,0,.47-3.55c-.62-1.32-.1-2.49.65-3.58,2.25-3.25,3.68-6.69,3.07-10.78a8.52,8.52,0,0,1,.52-2.79,6.85,6.85,0,0,0-1.71-6.66,7.48,7.48,0,0,1-2.16-3.62c-.66-2.72-3.19-4.44-4.08-7-.84-2.37-.51-5.06-1.57-7.45a12.53,12.53,0,0,0-3.05-4.25,8.83,8.83,0,0,1-2.61-5.46,71.46,71.46,0,0,1-.68-11.95c0-4.47-.07-9,0-13.43,0-1.74.55-2.23,2.34-2.31,4.79-.22,9.57-.48,14.36-.55,10.07-.15,20.14-.1,30.21-.31,7-.15,14-.59,21.06-.9,1,0,1.92-.07,2.88-.07a5.65,5.65,0,0,1,3.26.47c1.23.76.6,2,.88,3,.2.75.68,1.42.95,2.16.14.4.3,1.06.09,1.29-1.7,1.94-.61,3.47.5,5.15a17.18,17.18,0,0,1,1.5,3.52c.45,1.18,1.75,2,1.64,3.38s-1.78,1.7-2.61,2.63-1.23,1.85-.3,2.94c.53.6,1.24,1.3.69,2.07-1,1.47,0,3.61-1.73,4.8-.78.55-1.5,1.16-2.27,1.73a2.86,2.86,0,0,0-1.44,1.83c-.43,3.41-2.12,6.27-3.88,9.1a6.08,6.08,0,0,0-.86,3.18,9.85,9.85,0,0,1-2.23,6.61,2.36,2.36,0,0,0,0,3.47c1.3,1.2,1.15,2.34.64,3.86-.58,1.76.26,2.91,2,3a23.57,23.57,0,0,0,5.25-.18,41.1,41.1,0,0,1,7.16-.59c7.67-.07,15.28-1.21,23-1.21a75,75,0,0,0,10-1.15c3.11-.42,3.65.11,3.17,3.33a9.51,9.51,0,0,1-.28,1.41c-1.21,3.58-.07,6.69,2.21,9.34a13.14,13.14,0,0,1,3.28,6.21c.23,1.19,1.18,2.25,1.8,3.36-1.63.22-3.15.16-4.42-1.15a4.9,4.9,0,0,0-1.71-.72,6,6,0,0,1-2-.78,8.54,8.54,0,0,0-3.39-1.53c-.92-.16-1.51-1-2.39-1.21a4.35,4.35,0,0,0-4.45,1c-2.17,1.81-2.93,4.5-4,6.95a2.28,2.28,0,0,0,1,2.53,5.89,5.89,0,0,0,4.46,1.37c3.46-.37,7.05-.26,10.08-2.46a1.5,1.5,0,0,1,.87-.33,2.88,2.88,0,0,1,1.28.41.88.88,0,0,1,.21.81c-.2.59-.58,1.13-.78,1.72a1.64,1.64,0,0,0,.76,2.06,25.78,25.78,0,0,0,3.89,1.79c2.25.8,3.46,0,4.14-2.37a5.92,5.92,0,0,1,.63-1.74.76.76,0,0,1,1.22,0c.65,1.25.68,2.71,1.67,3.89.84,1,.44,1.69-.83,2-.31.07-.64,0-.95.09-2,.42-2.2.65-2.37,2.35a3.88,3.88,0,0,0,.06,1c.21,1.4-.43,2.07-1.79,2.23s-2.44.76-2.5,2.36a2.56,2.56,0,0,0,2.36,3,5.35,5.35,0,0,1,3.68,1.93,2.36,2.36,0,0,0,2.08,1c2.66-.21,4.89,1.33,7.39,1.76a5.47,5.47,0,0,1,3.08,2.12c.86,1,1.18,1.84.19,2.91a5.24,5.24,0,0,0-.7,1.25,1.33,1.33,0,0,1-1.94.73c-2.39-1.09-5.36-1.13-6.81-4a3.27,3.27,0,0,0-2-1.19,17.24,17.24,0,0,1-6.88-4,8,8,0,0,0-4.59-2.4c-1.63-.14-3-1.06-4.45-1.69a10,10,0,0,0-2.73-.74,1.64,1.64,0,0,0-1.2.62,1.39,1.39,0,0,0-.1,1.77c.72.84,1.64,1.49,2.38,2.31,1,1.09,1.87,2.29,1,3.84-.62,1.06-.37,2.16-.41,3.26,0,.9-.68,1.36-1.45,1.72-.92.41-1.56.18-1.77-.77-.11-.46-.07-1-.15-1.43a2.12,2.12,0,0,0-1.82-1.93c-.77-.14-1.76-.13-2.23-.61-1.33-1.34-2.57-.61-4-.27-2.42.58-4.06,1.69-4.07,4.47a1.2,1.2,0,0,1-1.63,1.22c-2.35-.88-5.07.38-7.29-1.53-.7-.6-2.15-.36-3.26-.46-.94-.09-1.91-.06-2.85-.21a1.49,1.49,0,0,1-1-2.45c1.2-1.29,1.52-2.37.1-3.62a3.07,3.07,0,0,1-.77-2.65c.17-.71-.38-.75-.82-.9-1.85,1.14-3.68,1.72-5.77.4a5.32,5.32,0,0,1-2-2.59A5.17,5.17,0,0,0,805,691.8a3.76,3.76,0,0,1-3.48-1.13,2.55,2.55,0,0,0-3-.62c-1.49.57-3,1.06-4.45,1.73s-1.6,1.55-.93,3.13c.3.72,1.08,1.57.41,2.14-1.32,1.12-3,2.28-4.73,1.73-3.11-1-6.31-.79-9.44-1.29a19.13,19.13,0,0,1-6.36-1.93,40,40,0,0,0-5.18-2.42,50.78,50.78,0,0,0-5-1.33c-.42-1.35,1-1.87,1.21-3,.24-1.53.19-2.88-1.53-3.55-1.07-.47-2.15-1-3.19.1.21,2.23-.79,4.26-1.08,6.41-.16.93-.87,1.22-1.66,1.44Z" transform="translate(-0.96 -0.96)"/>
  </g>
  <g id="Kentucky">
    <path class="cls-1" d="M858.69,469.35c.44-4,.88-7.46,1.18-11a8.88,8.88,0,0,0-.45-2.81,6.87,6.87,0,0,1-.18-3.31c.54-2.37,1.6-3.2,4-3.17a7.1,7.1,0,0,1,5.21,2,14,14,0,0,0,1,1c2.48,2,3.83,2.37,5.06,1.31,2.44-2.1,3.21-4.68,2.11-7.21-.56-1.28-1.82-2.43-1.13-4s2.4-2,3.91-2.51c5.24-1.63,5.36-1.72,3.92-6.89-.46-1.66-.13-2.85,1.31-3.67a4.94,4.94,0,0,0,2.46-2.75c.64-1.79,1.52-2.23,3.18-2a8.5,8.5,0,0,1,1.82.56,1.86,1.86,0,0,0,2.46-.84c1.35-2.18,3.25-2.34,5.41-1.51,1.64.63,3.27,1.27,4.88,1.95s2.24.57,3.23-.83c.55-.78.94-1.68,1.5-2.45,1.12-1.57,1.7-1.68,4-1a4.63,4.63,0,0,0,1.4.27c1.43-.11,2.62,1.7,4.07.67a8.82,8.82,0,0,0,3.21-4.06c.12-.3.11-.64.23-.93.62-1.5,1.51-2,3-1.56,1.68.49,3.32,1.16,5,1.53a5.06,5.06,0,0,0,6.34-4.21A13.42,13.42,0,0,0,937,410a3.91,3.91,0,0,1,2.42-3.79c.7-.31,1.59-.82,1.81-1.44,1-2.79,3-4.82,4.77-7.1a8.83,8.83,0,0,0,1.29-4.56c.21-2.59.29-2.58,3.21-1.94.16,0,.3.13.45.16a2.09,2.09,0,0,0,2.2-.6,8.07,8.07,0,0,1,5.6-3.28c1.86-.26,2.58-1.74,1.9-3.64a18.42,18.42,0,0,1-.95-5.16c-.09-1.61.72-2.52,2.23-2.38,2.38.21,4.75.56,7.12.9a3.46,3.46,0,0,1,2.32,1.58,8.11,8.11,0,0,0,4.82,2.92c6.93,1.91,13.88,3.77,20.82,5.65,2.66.72,5.07.5,6.92-1.85a7,7,0,0,1,1-1c1.14-.93,2.15-.94,2.73.33a4.35,4.35,0,0,0,3.58,2.79c2.94.39,3.83,2.66,4.44,5a37.16,37.16,0,0,1,.94,6.14,8.68,8.68,0,0,0,2.89,5.88,27.73,27.73,0,0,1,4.51,5.57c1.7,2.59,4.24,4.29,6.63,6.14,1.46,1.12,1.6,1.37.77,2.63q-2.51,3.81-5.13,7.51a7.75,7.75,0,0,1-3.47,2.5,9.4,9.4,0,0,0-4.54,4.08c-.83,1.37-1.92,2.59-2.62,4a6.92,6.92,0,0,1-3.62,3.62,3,3,0,0,0-2,1.94c-.41,2-1.82,2.58-3.52,3.38-3.16,1.49-6.69,2.22-9.51,4.45a3.47,3.47,0,0,1-2.24.71c-2.57,0-5.09.73-7.6.81-4.17.14-8.21,1.16-12.37,1.34-3.8.16-7.56,1.1-11.37,1.42-4.6.4-9.14,1.3-13.79,1.46-6.21.21-12.4,1-18.59,1.5-1.6.13-3.2.18-4.79.32a33.69,33.69,0,0,0-4.26.51,64.6,64.6,0,0,1-9.49,1.28c-8.12.55-16.21,1.8-24.38,1.06a5.75,5.75,0,0,0-1.43.11,1.77,1.77,0,0,0-1.59,1.54,13.5,13.5,0,0,0,0,1.91c0,2.33-.32,2.75-2.66,3a92.52,92.52,0,0,1-10,1c-3.5,0-7,.59-10.49.87C861,469.42,860.1,469.35,858.69,469.35Z" transform="translate(-0.96 -0.96)"/>
  </g>
  <g id="Kansas">
    <path class="cls-1" d="M532.9,437.78c1.1-1.21.75-2.72.8-4.12.26-7.19.74-14.35,1.53-21.5.21-1.9.07-3.83.15-5.75.4-9.42.65-18.84,1.3-28.25.28-4,.47-8,.7-12,.13-2.09.62-2.65,2.6-2.58,4.3.16,8.6-.17,12.91.61,3,.54,6.05.33,9.09.39a90.06,90.06,0,0,1,9.55.63,106.32,106.32,0,0,0,11,.34c3,.06,6.07-.14,9.06.67a10.45,10.45,0,0,0,2.86.18c17.59-.21,35.14,1.33,52.73,1.09,7.67-.11,15.35,0,23-.06,5.43-.05,10.85.1,16.27-.66,2.83-.39,5.75-.11,8.63-.2a4.89,4.89,0,0,1,4.25,1.7c2.18,2.54,5.07,2.94,8.19,2.5a2.48,2.48,0,0,1,.94,0,1.09,1.09,0,0,1,.89,1,1.61,1.61,0,0,1-.12.91,1.4,1.4,0,0,1-.74.57c-3.71,1.06-3.87,4.32-4.45,7.25a3.3,3.3,0,0,0,1.24,3,9.87,9.87,0,0,0,1.91,1.44,7.22,7.22,0,0,1,3.35,3.92,6,6,0,0,0,4.27,4.12,3.3,3.3,0,0,1,2.5,3.15,64.16,64.16,0,0,1,.65,6.66c0,17.43,0,34.87,0,52.3,0,1.12,0,2.24-.1,3.35a1.64,1.64,0,0,1-1.55,1.54,6,6,0,0,1-1,.07c-8.78.3-17.56.82-26.34.86-27.35.11-54.7,0-82.05.08-6.56,0-13.07-.74-19.62-.83-4.32-.06-8.64-.06-13-.15-6.06-.12-12.11,0-18.18-.66-5.7-.61-11.51-.24-17.26-.33-6.42-.11-6.4-.12-6.25-6.44,0-1.76,0-3.51,0-5.27C531.84,444.11,531,440.92,532.9,437.78Z" transform="translate(-0.96 -0.96)"/>
  </g>
  <g id="Iowa">
    <path class="cls-1" d="M681.79,312a3.53,3.53,0,0,1,.06-.65c1.58-4-.28-7.11-2.51-10.16a22.8,22.8,0,0,0-2.17-3.15c-2-2-2.5-4.34-2.34-7,.06-1.11-.05-2.24-.09-3.36a8.3,8.3,0,0,0-1.75-4.88c-1.08-1.38-2-2.85-3.15-4.22a4,4,0,0,1-.49-4.48,13.83,13.83,0,0,1,1.1-2.13c2.14-3.19,2-6.62,1.15-10.14-.11-.46-.53-.88-.54-1.32,0-1.88-.62-4,.45-5.56,1-1.39,3-.66,4.54-.75,14.68-.88,29.41-.45,44.09-1.18,12-.59,24-.18,35.94-.93,7.67-.48,15.34-.43,23-.83,3.19-.16,6.37-.51,9.54-.82,1.77-.16,3.18.14,3.65,2.16a2.66,2.66,0,0,0,.65,1.27c1.64,1.59,2,3.21,1.23,5.53a10.27,10.27,0,0,0,.71,7.94,15.93,15.93,0,0,1,1.28,4.09c.53,2.4,2,4.14,4.5,4.35,3.51.28,6.09,1.49,6.8,5.27a1.52,1.52,0,0,0,.49.82c3.82,3.15,5.78,8.05,10.07,10.75a2.81,2.81,0,0,1,1.4,3.62,19.75,19.75,0,0,0-.48,3.79,3.86,3.86,0,0,1-.9,2.66,7,7,0,0,0-2.07,5.65,1.61,1.61,0,0,1-1.38,1.71,15.73,15.73,0,0,0-5.63,2.53,10.2,10.2,0,0,1-6,1.38,2.68,2.68,0,0,0-2.8,2.17,26,26,0,0,0-1,4.67A4.85,4.85,0,0,0,801,325c1.82,1.52,2,3.13.82,5.06a13.6,13.6,0,0,0-2.24,6.74c0,1.62-1.32,2.51-2.68,3.09a7.71,7.71,0,0,0-4.84,5,1.23,1.23,0,0,1-2,.44,8.08,8.08,0,0,1-2.4-2.94,2.86,2.86,0,0,0-2.8-1.49,12.65,12.65,0,0,0-2.39.1c-3.77.76-7.6.86-11.41,1.25-2.54.27-5.09.44-7.63.62-18.52,1.34-37.07,1-55.61,1.14-4.79,0-9.55.94-14.35.61a7.57,7.57,0,0,1-2.81-.36,3.94,3.94,0,0,1-2.55-3.74c.26-4.18-1.07-8.19-1.07-12.38,0-3.43-1.2-6.87-1.92-10.29a3,3,0,0,0-1.49-1.8C682.13,315.05,682.05,313.41,681.79,312Z" transform="translate(-0.96 -0.96)"/>
  </g>
  <g id="Indiana">
    <path class="cls-1" d="M885.16,422.43a44.43,44.43,0,0,0,0-4.76,7.87,7.87,0,0,1,2.64-7.28,7.93,7.93,0,0,0,1.58-2.37c1.59-3.11,2.56-6.5,4.61-9.41a4.92,4.92,0,0,0,.67-4.15,12.75,12.75,0,0,1-.48-5.63,4.28,4.28,0,0,0-1.77-3.76,4.29,4.29,0,0,1-1.24-4.36,15,15,0,0,1,.49-2.81c2.1-5.38.32-10.71-.15-16-.07-.78-.36-1.55-.42-2.34-.39-5.24-.67-10.48-1.13-15.71-.48-5.39-1.12-10.76-1.69-16.13,0-.48-.1-.95-.14-1.43-.38-5.72-.72-11.43-1.15-17.15-.16-2.21-.5-4.42-.76-6.63l2.8-.18a7.91,7.91,0,0,0,5-.7c1.52-.21,2.49-1.31,3.57-2.25,2.18-2.42,5.32-2.66,8.17-3.57,2.06.1,4.15-.71,6.16.29a5.16,5.16,0,0,0,1.39.32c4.45-.35,8.91-.61,13.33-1.18,5.36-.68,10.69-1.63,16-2.45a11,11,0,0,1,1.91-.06c1.88.07,2.71.67,3,2.46.77,5.69,1.48,11.38,2.18,17.08.43,3.48.75,7,1.19,10.45.81,6.49,1.68,13,2.51,19.47q1.23,9.5,2.45,19,.63,5,1.22,10a4.93,4.93,0,0,1,.08,2.37c-1.51,3.15-.21,6.2.12,9.28.12,1.07-.1,1.85-1.23,2.24a5,5,0,0,0-2.12,1c-1.48,1.68-3,1.67-5.09,1.13-3.07-.79-5.26,1.31-5,4.62.26,2.79-.25,5-2.56,6.76a3.89,3.89,0,0,0-1.42,2.44,3.66,3.66,0,0,1-2.25,2.9c-1.9.77-2.53,2.28-2.79,4.12-.11.79-.41,1.55-.56,2.33-.21,1.1-.25,2.38-1.67,2.57s-3.17.51-4.4-1a20.68,20.68,0,0,0-3-3.09c-1.31-1.08-3.18-.5-3.26,1.17-.12,2.42-2.05,3.9-2.52,6.13a2.44,2.44,0,0,1-4.23.94c-1.62-1.66-2.83-1.56-4.52-.33-1.43,1-3,1.83-3.77,3.55a1.87,1.87,0,0,1-2.45.89,7.61,7.61,0,0,1-2.71-.91c-2.15-1.83-4-1.49-6.55-.44-3.18,1.33-6.52,2.64-10.13,2.57Z" transform="translate(-0.96 -0.96)"/>
  </g>
  <g id="Illinois">
    <path class="cls-1" d="M884.11,303.38a69.65,69.65,0,0,0,.7,12.9c.59,3.78.47,7.62,1,11.44.75,5,.81,10.18,1.26,15.26.49,5.56,1.08,11.11,1.65,16.66.41,4,.18,8,1.13,11.92a3.78,3.78,0,0,1-.19,2.35c-1.2,2.57-.48,5.38-1.19,8a4.76,4.76,0,0,0,1.42,4.38,4.35,4.35,0,0,1,1.18,3.52,9.58,9.58,0,0,0,.6,4.23,4.27,4.27,0,0,1-.6,4.11c-1.5,1.94-2.16,4.26-3.16,6.42a16.13,16.13,0,0,1-3.23,5.28,5.27,5.27,0,0,0-1.66,4.33,16.06,16.06,0,0,1-1.27,7.49,4.34,4.34,0,0,0-.51,2.3,11.28,11.28,0,0,1-.9,6.5c-.6,1.39.3,2.78.73,4.15.37,1.17,0,1.86-1.24,2.11a17.33,17.33,0,0,0-4.88,1.93,6,6,0,0,0-2.58,2.74,3.12,3.12,0,0,0,0,3.19c.48.83,1,1.61,1.5,2.44a2.05,2.05,0,0,1-.45,2.95c-.81.56-1.47.15-2.16-.31-1.19-.8-2.39-1.6-3.63-2.29a8.59,8.59,0,0,0-3.66-1c-4.12-.28-5.23.32-7.13,4.1-.57,1.13-.92,2.42-2.5,2.6-1.89.22-2.38-1.36-3.14-2.49-1.45-2.17-2.55-4.41-1-7.11a2.94,2.94,0,0,0-.09-3.22c-1.4-1.7-1.73-3.73-2.21-5.73a3.81,3.81,0,0,0-2.28-2.87,12.08,12.08,0,0,1-4.16-3.17c-.53-.59-1.11-1.38-1.8-1.54-3.58-.84-5.58-4-8.67-5.63a14.59,14.59,0,0,1-3.63-3.1,5.14,5.14,0,0,1-1.39-4.83,46.3,46.3,0,0,1,2-7.86c.57-1.49,1.08-3,1.53-4.54.86-2.94,0-5-2.84-6.15a14.15,14.15,0,0,0-8-1.09c-2.54.47-3.59-.85-3.68-3.11-.18-4.93-2.73-8.38-6.74-10.94a14,14,0,0,1-4.9-4.47,3.62,3.62,0,0,0-1.39-1.3c-4.13-2.24-5.84-6.16-7.17-10.32-.49-1.51-.67-3.12-1.14-4.64-1-3.31-.78-6.27,1.86-8.83,1.18-1.15.83-2.57.43-4-.49-1.85-.26-2.19,1.26-3.14.67-.42,1.4-.77,2.11-1.13,2-1.05,3.25-2.54,3-4.95a7.9,7.9,0,0,1,1.68-4.9c1.92-3,2.15-6-.55-8.71-1.42-1.43-1.31-3.17-1-4.94a1.6,1.6,0,0,1,1.56-1.54c3.06.16,5.53-1.1,8-2.75a14.5,14.5,0,0,1,3.61-1.23,4,4,0,0,0,3.08-3.83,10.14,10.14,0,0,1,1.75-5.3c1.78-2.92,1.54-6.45,1.8-9.77a3.2,3.2,0,0,0-1.07-2.05c-1-1-2.18-1.86-3.26-2.8-.72-.63-1.65-1.18-2-2a11.06,11.06,0,0,0-4.12-5.13c-.17-.1-.22-.59-.12-.83a1.18,1.18,0,0,1,.66-.55,2.26,2.26,0,0,1,.94-.13c7.52.14,15-.7,22.49-1.11s15.27-1.17,22.91-1.72c2.7-.2,5.43-.23,8.14-.34,1.12-.05,2.26,0,3.13-.91a7.07,7.07,0,0,1,3.79.1c1.75,2.84,0,6.24,1.47,9.11a2,2,0,0,0,1.07,1.6,25,25,0,0,1,2.15,1.69,13.71,13.71,0,0,1,1.86,3.85,21,21,0,0,0,2.33,5.21A11.7,11.7,0,0,1,884.11,303.38Z" transform="translate(-0.96 -0.96)"/>
  </g>
  <g id="Idaho">
    <path class="cls-1" d="M252.66,39.37c-1.29.91-1.51,2.37-1.93,3.73-1.54,5.06-2,10.3-2.92,15.48-.06.32,0,.66-.07,1-2,6.16-.45,12,1.73,17.73,1.08,2.84,2.07,5.74.56,8.81a2.18,2.18,0,0,0,.44,2.25,33.16,33.16,0,0,0,2.17,2.55,26,26,0,0,1,4.45,6.22c1.43,2.85,2.65,5.83,5.06,8.08a3.21,3.21,0,0,1,.75,1.21c1.27,3.3,2.59,6.55,5.76,8.57,1.1,2.37,3.22,3.31,5.59,3.63.09,1.86-1,3-1.54,4.26-.77,1.76-1.61,3.48-2.43,5.21a14.57,14.57,0,0,0-1.37,8.39,5.47,5.47,0,0,1-1.34,4.85c-1.8,2-2.05,4.66-2.53,7.13-.53,2.68,2.26,6.51,5,7.43a3.2,3.2,0,0,0,2.3-.27,16.24,16.24,0,0,0,4.7-3.26,1.91,1.91,0,0,1,3.09.9,8.66,8.66,0,0,1,.51,2.8,17,17,0,0,0,2.06,7.8c.78,1.57,1.28,3.28,2.06,4.85,1,2,1.38,3.85.17,5.86a5.2,5.2,0,0,0-.56,1.83c-.38,2.22.58,3.81,2.89,4a3.86,3.86,0,0,1,3.59,2.54c1.21,2.63,2.44,5.21,2,8.24a3.66,3.66,0,0,0,.87,3.13c.88.92,2.06,1.48,3,.74,2.55-2.1,5.17-2,8-.78a5.1,5.1,0,0,0,4.61-.54c2-1.1,3.83-.93,6-.27,3.78,1.16,7.69,1.9,11.56,2.8a2,2,0,0,0,2.11-.81,25,25,0,0,0,1.37-2.49c.6-1.1,1.49-1.26,2.21-.35.88,1.13,1.63,2.37,2.53,3.49a4.29,4.29,0,0,1,.76,3.62c-1.27,9.15-2.51,18.3-3.82,27.45s-2.66,18.32-4.09,27.47c-.83,5.36-1.86,10.68-2.32,16.09a11.17,11.17,0,0,1-.41,1.87c-.76,2.93-.81,2.87-3.93,2.55-11.6-1.22-23-3.55-34.54-5.3-11-1.66-22-3.71-32.91-5.84-19.39-3.8-38.75-7.78-58.11-11.71-.94-.19-1.84-.53-2.76-.81-3.87-1.17-3.83-1.16-3-5.13,2.7-13.3,5.36-26.6,8.06-39.89.61-3,1.43-5.87,1.85-8.89.39-2.84,2.06-5.34,3.36-7.91q1.29-2.57,2.55-5.16A1.83,1.83,0,0,0,205,182c-.51-.37-1.1-.66-1.63-1-3.28-2.14-3.94-4.74-1.92-8.06a16.79,16.79,0,0,1,2.38-3c1.45-1.49,3-2.91,4.53-4.28a10.26,10.26,0,0,0,3.53-5,9.49,9.49,0,0,1,3.12-4.72,15.34,15.34,0,0,0,3.89-5.41,13.72,13.72,0,0,1,2.54-4,12,12,0,0,0,2.22-4.2c1.33-3.53,1-6.62-2-9.09-2.35-1.92-3-4.35-2.66-7.27a11.46,11.46,0,0,0-1.07-7,6.19,6.19,0,0,1-.42-4.18c2.27-14,5.66-27.82,8.74-41.68,2.67-12,5.22-24,7.79-36a26.25,26.25,0,0,0,.32-3.33l1.91-.25a9.22,9.22,0,0,1,2,.53l2.81.41a12.63,12.63,0,0,1,2,.51l2.81.46a8,8,0,0,1,2,.61l2.8.4a5.78,5.78,0,0,1,2,.67Z" transform="translate(-0.96 -0.96)"/>
  </g>
  <g id="Hawaii">
    <path class="cls-3" d="M1,865V1" transform="translate(-0.96 -0.96)"/>
    <path class="cls-1" d="M142.18,671.29c2.17-4.21.46-8.63-1.87-13a14.86,14.86,0,0,1-.92-2.73c-1-3.38-.78-6.33,2.79-8.16a5.08,5.08,0,0,0,1.1-.93c2.17-2.06,2.47-3.71,1.12-6.41-.6-1.2-2.24-2.51-.68-3.7,1.12-.87,2.26.69,3.3,1.35a44.43,44.43,0,0,0,11.6,5.61c.92.27,1.82.63,2.75.84a7.3,7.3,0,0,1,5.75,5.17,20.35,20.35,0,0,0,5.75,9.25,6.68,6.68,0,0,1,1.27,2,1.44,1.44,0,0,1-.61,2.06,42.87,42.87,0,0,0-6.62,3.78,6,6,0,0,1-3.74.59,8.79,8.79,0,0,0-7.23,3.1q-1.92,2.13-3.82,4.28a33.1,33.1,0,0,1-2.25,2.48,3.41,3.41,0,0,1-1.7.78C146.05,678,141.88,674.06,142.18,671.29Z" transform="translate(-0.96 -0.96)"/>
    <path class="cls-1" d="M126.77,624.37c-.32-.18-.88-.3-1.11-.65-2.33-3.46-5.61-6-8.45-9a3.35,3.35,0,0,1-.41-.85c-.26-.54.29-1.28.88-1.36a4.35,4.35,0,0,1,3.08,1.06,6.92,6.92,0,0,0,5,1.21c3.47-.55,6.06,1.56,8.85,3,.78.4.78,1.29.34,2.1a5,5,0,0,1-2.69,2.56c-1.49.54-3,1.16-4.44,1.72A8.91,8.91,0,0,1,126.77,624.37Z" transform="translate(-0.96 -0.96)"/>
    <path class="cls-1" d="M74.85,598.69a11.18,11.18,0,0,0-1.13.58c-.6.38-1.22.52-1.73,0-1.53-1.61-3.41-2.94-4.1-5.21-.27-.89.15-1.75,1.06-1.64,2.64.31,4.67-.39,6-2.85a1.19,1.19,0,0,1,2,.18,12.75,12.75,0,0,1,1.24,2.58,12.28,12.28,0,0,0,4.36,6.7,2.55,2.55,0,0,1,.64.71c.38.65,1.22,1.09.91,2-.23.7-2.08,1.1-3,.51-1.35-.84-2.6-1.85-3.9-2.78A3.48,3.48,0,0,0,74.85,598.69Z" transform="translate(-0.96 -0.96)"/>
    <path class="cls-1" d="M19.25,575.7c2.81-1.4,5-2.59,7.31-3.64,2.43-1.12,4.67-.35,6.75,1a1.81,1.81,0,0,1,.43,2.85c-1.07,1.37-2.12,2.77-3.27,4.08-1.66,1.91-2.89,2.06-4.93.58S21.79,577.68,19.25,575.7Z" transform="translate(-0.96 -0.96)"/>
    <path class="cls-1" d="M100.88,607.3c-.67.07-1.15.13-1.63.17-1.07.06-1.87-.43-1.65-1A1.67,1.67,0,0,1,99,605.27a4,4,0,0,1,1.89,0c2.9,1.16,5.92,1.07,8.94,1.05a7.59,7.59,0,0,1,1.42.14c.89.14,1.7,1,1.44,1.56a2.28,2.28,0,0,1-1.87,1.3,4.1,4.1,0,0,1-2.71-.77A10.31,10.31,0,0,0,100.88,607.3Z" transform="translate(-0.96 -0.96)"/>
    <path class="cls-1" d="M107,614.79a6.45,6.45,0,0,1,3.8,2.72c.3.42,0,.91-.54,1.1a4,4,0,0,1-4.69-1.25c-.44-.47-.86-1-.53-1.64S106,614.91,107,614.79Z" transform="translate(-0.96 -0.96)"/>
    <path class="cls-4" d="M5.55,583.31c-.14-.26-.43-.54-.4-.77a3.56,3.56,0,0,1,2.06-2.93c.56-.27,1.08-.6,1.74-.27s.42,1.19-.38,2a20.55,20.55,0,0,1-2.12,1.84C6.24,583.34,5.86,583.27,5.55,583.31Z" transform="translate(-0.96 -0.96)"/>
  </g>
  <g id="Gerogia">
    <path class="cls-1" d="M1078.07,630c-1.81-1.55-4.13-1.62-6.25-1.59a4.77,4.77,0,0,0-4.34,4.91,45.51,45.51,0,0,0,.74,5.2,7.57,7.57,0,0,1,.33,3.3c-.1.46-.28,1-.85,1a1.93,1.93,0,0,1-1.29-.3,8.26,8.26,0,0,1-1.39-1.92,4.52,4.52,0,0,0-4.84-2.35,21.71,21.71,0,0,0-3.34.24c-3.78,1-7.67.39-11.44.92-7.94,1.13-16,.29-23.89,1.66a21.13,21.13,0,0,1-2.87.11c-4.31.13-8.6.25-12.91.81s-8.62.27-12.94.32a1.62,1.62,0,0,1-1.83-1.21c-.81-3.7-3.18-6.6-5.15-9.66a10.45,10.45,0,0,1-1.5-8.2c.12-.63.38-1.23.49-1.86.46-2.58.53-5.15-1.07-7.39-2.57-3.61-2-7.61-1.57-11.59a6,6,0,0,1,1.86-3.29,4,4,0,0,0,.62-4.45,27.79,27.79,0,0,1-1.2-4.12c-.43-2-1.22-3.68-3.11-4.59a6.47,6.47,0,0,1-3.1-4.09c-1-2.87-2-5.75-2.7-8.69-3-12.12-6.71-24-10.4-35.9-2.28-7.32-4.5-14.66-6.74-22a10.06,10.06,0,0,1-.36-1.88,1.8,1.8,0,0,1,1.06-1.94,10.68,10.68,0,0,1,3.7-.85c4.43-.52,8.84-1.15,13.27-1.68,3.48-.43,7-.64,10.45-1.19,8.82-1.39,17.68-2.53,26.52-3.78.63-.08,1.26-.18,1.9-.22,2.41-.16,2.9.53,1.87,2.64-.13.29-.35.54-.48.83-1.89,4.27-1.19,6.24,3.08,8.48a30.18,30.18,0,0,0,7,3.15c2.49.6,3.89,2.69,5.06,4.83a37.71,37.71,0,0,0,5.95,8.08,9.79,9.79,0,0,0,4.7,3.13,6.48,6.48,0,0,1,4.59,3.9,8.35,8.35,0,0,0,6,5,7.65,7.65,0,0,1,5.4,4.26,36.45,36.45,0,0,0,4.54,6.12,13.07,13.07,0,0,0,5.52,3.73c3.62,1.42,5.38,4.31,6.4,7.82a7.51,7.51,0,0,1,.21.94c.52,3.64,2.35,6.21,6,7.33a3.47,3.47,0,0,1,2.2,2.34c.9,2.36,2.43,4.5,2.08,7.26a2.4,2.4,0,0,0,1.72,2.62c2,.62,3.73,1.86,5.86,2a2.08,2.08,0,0,1,.63,1.73c-.34,1.68-1.59,1.18-2.66,1.11-1.51,0-2.39.8-2.16,2.32a3,3,0,0,1-1,2.82c-1.39,1.47-1.26,1.64.71,3.62a1.94,1.94,0,0,1-.36,2.07c-2.2,1-2.36,1.36-1.83,3.8a2.25,2.25,0,0,1,.4,2,3,3,0,0,1-2.45,1.74,2.89,2.89,0,0,0-2,.85,1.67,1.67,0,0,0-.13,1.31l0,.09c1.2,1.27,4.08-.14,4.32,2.68-.82.93-2,.72-3,1.11-1.39.54-2.3,1.75-1.76,2.93,1.39,3,.62,6.23.91,9.33.16,1.77,0,1.88-2.15,2.2A6,6,0,0,1,1078.07,630Z" transform="translate(-0.96 -0.96)"/>
  </g>
  <g id="Florida">
    <path class="cls-1" d="M923.21,656.7c.79-1.83-.05-3.11-1.48-4.09a9.59,9.59,0,0,1-3.44-3.23c-1.09-2-.58-3.81,1.52-4.69a5,5,0,0,1,1.38-.37l17.09-2c4.75-.55,9.51-1.06,14.25-1.68,3.16-.42,6.34-.46,9.51-1,4.4-.73,8.88-.91,13.32-1.35,2.7-.26,5.38-.69,8.08-.84s3.7.81,4.46,3.34c.14.46.08,1,.22,1.42.63,2,1.67,2.92,3.85,2.9,3.83,0,7.66-.25,11.48-.43,1,0,1.9-.32,2.85-.37,8-.41,15.94-.71,23.9-1.21,7.16-.44,14.31-1.08,21.46-1.64,2.86-.22,5.75.06,8.56-.8a1.79,1.79,0,0,1,2.06.86c.52.8.92,1.69,1.43,2.49a4.12,4.12,0,0,0,7.59-1.91,18.11,18.11,0,0,0-.45-5.23,15.87,15.87,0,0,1-.51-3.29,1.87,1.87,0,0,1,2.12-2c1.26.05,2.51.33,3.77.49.63.07,1.26.08,1.88.11a22.7,22.7,0,0,0,5.82.24,2.94,2.94,0,0,1,.39,3.22,2.7,2.7,0,0,0,1.25,3.68,4.33,4.33,0,0,1,2.24,3.94,5.74,5.74,0,0,0,0,1.85c.11.62.22,1.25.32,1.87.22.88,1,1.49,1.12,2.45.23,2,1.43,3.53,2.3,5.18,3.6,6.87,7.27,13.71,11.1,20.46a49.15,49.15,0,0,0,9.74,12.19,2.77,2.77,0,0,1-.9,2.94c-.27,2.88,1.19,5.24,2.35,7.68a137.33,137.33,0,0,0,13.19,22.25,72,72,0,0,1,8,14.13,7,7,0,0,0,3,3.56,7.66,7.66,0,0,1,3.71,4.81,17.6,17.6,0,0,0,1.35,3,23.58,23.58,0,0,1,2.64,10.11c0,6.55.29,13.11.46,19.67a9.09,9.09,0,0,1-1.49,5.86,10.54,10.54,0,0,0-1.44,8.75,9.54,9.54,0,0,1-.3,5.58c-.57,1.84-1.24,3.25-3.57,3a2.87,2.87,0,0,0-2.82,1.51,4.17,4.17,0,0,1-4.45,2.13,9,9,0,0,0-6.34,1.69c-1.69,1.18-3.26-.23-3.63-2.25,0-.18.4-.65.52-.62.76.18,1.49.52,2.25.72,1.49.41,2.58.06,2.89-.84s-.18-1.89-1.45-2.74a9.27,9.27,0,0,0-4-1.6,2.76,2.76,0,0,1-2.52-1.86c-1.61-4.27-4.58-7.66-7.52-11-1.8-2-4.55-2.06-7.12-2-.78,0-1.52.52-2.5.15-.87-1.07-1-2.89-2.64-3.63-.77-.35-.89-1.26-1.13-2-.36-1.22-.8-2.43-1.18-3.65-.66-2.16-1.49-4.14-3.53-5.51-1.28-.84-1.33-2.06-.56-3.37.56-1,1.28-1.84,1.9-2.77.46-.68.88-1.56,0-2.08s-1.51.24-2,.85c-.81,1-1.49,2.08-2.31,3.06-.67.82-2.21.6-2.31-.34-.36-3.12-1.92-6.14-.7-9.41a1.09,1.09,0,0,0-1.33-1.41,13.59,13.59,0,0,1-4.65.82c-1.3,0-1.25,1.19-1.37,2.12-1.11.48-1.85-.2-2.49-.9a24.91,24.91,0,0,1-5.35-8.45,12.55,12.55,0,0,0-3.48-5.58,1.8,1.8,0,0,1-.14-2.89,3.94,3.94,0,0,0,.84-1.7,13.34,13.34,0,0,1,2.61-5.54c1.26-1.64.26-5.22-1.49-6.44a1.29,1.29,0,0,0-.88-.26c-1.69.67-3,.07-4.35-.95a1.41,1.41,0,0,0-1.31,0c-.58.37-.57,1-.37,1.71a12.93,12.93,0,0,0,2.18,3.68,1.78,1.78,0,0,1-.22,2.21c-.53.74-1.23,1.06-2,.5a27.46,27.46,0,0,1-2.19-1.85,2.1,2.1,0,0,1-.78-2.55c.86-2,.6-4.07.44-6.14A6.31,6.31,0,0,1,1062,717c2.4-7.28.84-14.54,0-21.81a3.42,3.42,0,0,0-1.93-3.08,3.75,3.75,0,0,1-2.08-3c-.58-2.77-2.43-4-5.21-3.86-.64,0-1.28,0-1.92,0a4.55,4.55,0,0,1-4.16-1.92,24.39,24.39,0,0,0-7.26-6.16,4.21,4.21,0,0,1-2.26-2.93,5.21,5.21,0,0,0-3.77-4.5,5.88,5.88,0,0,1-3.14-2.81,8.18,8.18,0,0,0-4-3.24c-2.35-1-4.69-2-7-3a6,6,0,0,0-1.38-.39c-2.62-.43-5.1.42-7.51,1.17a7.42,7.42,0,0,0-5.1,5.27,1.93,1.93,0,0,1-1.14,1.41,15.09,15.09,0,0,0-5,3.6,4.37,4.37,0,0,1-3.47,1.33,4,4,0,0,0-3.4,1.45,6.27,6.27,0,0,1-4.72,1.94c-2.31.14-2.41.24-3.45-2.21a6.63,6.63,0,0,0-3.86-4c-3.17-1.07-4.47-4-6.46-6.2-1-1.13,0-2.41.27-3.62a1.8,1.8,0,0,0-.2-1.32c-.46-.63-1.14-.45-1.66,0-1,.86-2.09,1.44-3.49.83a1.53,1.53,0,0,0-2.07.68c-.63,1.18-1.33,1.57-2.66,1-1.9-.82-3.45-1.62-4.59-3.71-1.26-2.33-4.12-2.94-6.73-2.65a18.27,18.27,0,0,1-3.76.22,2.13,2.13,0,0,0-2.07,1,4.52,4.52,0,0,1-4.41,2.27,11.77,11.77,0,0,0-2.79.66c-1.16.28-2.19.32-2.73-1.09a4.51,4.51,0,0,0-1.13-1.52,3.08,3.08,0,0,0-3.47-.91,14.92,14.92,0,0,1-2.3.59,1.74,1.74,0,0,0-1.47,1.66,6.32,6.32,0,0,1-2,4.71,1.31,1.31,0,0,1-1.36-1.43,1.85,1.85,0,0,0-.56-2.43A3,3,0,0,1,923.21,656.7Z" transform="translate(-0.96 -0.96)"/>
  </g>
  <g id="District_Of_Columbia">
    <path class="cls-1" d="M1169,373.64l5,.8.4-2.95-5,.13c-1.93.06-1.94,3.06,0,3l5-.13c1.61,0,2.13-2.67.4-2.95l-5-.8a1.54,1.54,0,0,0-1.84,1.05,1.51,1.51,0,0,0,1,1.85Z" transform="translate(-0.96 -0.96)"/>
    <path class="cls-1" d="M1536,360.53l-1.36.69a1.51,1.51,0,0,0-.54,2,1.53,1.53,0,0,0,2.05.54l1.36-.69a1.51,1.51,0,0,0,.54-2.05,1.54,1.54,0,0,0-2-.54Z" transform="translate(-0.96 -0.96)"/>
  </g>
  <g id="Deleware">
    <path class="cls-1" d="M1195.28,343.83a2,2,0,0,1,1.66,2.48c0,.47,0,.95,0,1.43a2.57,2.57,0,0,0,1.79,3c1.63.57,1.35,1.92,1.06,3.21-3.45.48-6.84,1.34-10.36,1.38-3.2,0-3.37.07-4.34-3.11-1.62-5.31-3.12-10.66-4.64-16q-1.87-6.65-3.68-13.3a20.45,20.45,0,0,1-.77-3.7c-.22-2.64,1-3.32,3.91-2.39v2.89a17.2,17.2,0,0,0,0,1.9c-.14,3.26.88,5.89,3.79,7.7a8,8,0,0,1,2.7,3.29" transform="translate(-0.96 -0.96)"/>
  </g>
  <g id="Connecticut">
    <path class="cls-1" d="M1217.32,263.19c-.56-.28-2.09-.05-1.24-1.19,1.64-2.21,1.34-4.51.86-6.84a62.15,62.15,0,0,0-1.88-7.4c-1.48-4.27-1.59-8.74-2.28-13.13a1.82,1.82,0,0,1,1.38-2.2c2.46-.65,4.93-1.24,7.41-1.79,6.68-1.5,13.35-3,20-4.43,1.86-.41,3.73-.77,5.59-1.2a1.61,1.61,0,0,1,2.14,1.32c1,5,3.87,9.45,3.92,14.67-.22,2-.45,3.9-3.11,3.93-3.43,2.36-7.78,2.54-11.3,4.74a4.79,4.79,0,0,1-2.22.73c-3.06.08-5.41,1.74-7.65,3.47-1.74,1.34-3.13,3-5.46,3.59-.93.22-1.63,1.41-2.41,2.2C1219.89,260.89,1219,262.46,1217.32,263.19Z" transform="translate(-0.96 -0.96)"/>
  </g>
  <g id="Colorado">
    <path class="cls-1" d="M531.08,445.44a54.11,54.11,0,0,0-1,10c-.08,2.17-.5,2.6-2.56,2.57-3.51-.06-7,.13-10.52-.5a22.11,22.11,0,0,0-4.3-.29c-10.24.19-20.44-.81-30.65-1.29-8.92-.42-17.82-1.35-26.75-1.94s-17.78-1.73-26.67-2.56c-4.93-.47-9.88-.73-14.8-1.21-4.61-.44-9.2-1-13.79-1.57-3.49-.41-7-.54-10.49-1-7.44-1-14.93-1.54-22.39-2.29-3-.3-6-.64-9.05-1-1.5-.17-2.05-.67-1.91-2.16.33-3.65.77-7.3,1.23-10.94.48-3.8,1.07-7.58,1.56-11.38.79-6.17,1.53-12.35,2.31-18.53.46-3.64,1-7.27,1.46-10.92.78-6.17,1.57-12.35,2.31-18.53,1.09-9.2,2.73-18.31,3.57-27.54.53-5.87,1.58-11.7,2.38-17.54.18-1.27.24-2.55.39-3.81a25.87,25.87,0,0,1,.48-3.31,2.37,2.37,0,0,1,2.68-2.17,20.93,20.93,0,0,1,3.36.1c3.62.5,7.23,1.1,10.85,1.62,3,.44,6,.56,9,1.07,3.92.67,7.92.8,11.88,1.26s8.2,1.16,12.32,1.62c4.59.51,9.2.87,13.8,1.29,3.34.3,6.64.83,10,1,4.93.29,9.83,1,14.75,1.55,4.13.42,8.26.83,12.4,1.09,3.83.24,7.64.57,11.46.89,7.32.61,14.69.68,22,1.31,8.78.76,17.57.79,26.36.85a13.51,13.51,0,0,1,1.91.1,2.15,2.15,0,0,1,2,2.32,5.22,5.22,0,0,1-.08,1.43c-.75,3-.53,6-.65,9.07-.39,9.26-.51,18.54-1.26,27.77-.45,5.58-.4,11.18-.93,16.73-.64,6.86-.42,13.75-1,20.58-.5,5.91-.63,11.81-.85,17.71-.05,1.27-.31,2.53-.43,3.81-.23,2.37-.63,4.75.13,7.11C532.35,440.45,532.74,443,531.08,445.44Z" transform="translate(-0.96 -0.96)"/>
  </g>
  <g id="California">
    <path class="cls-1" d="M152.55,553.53a17.42,17.42,0,0,0-5.71-.41,28.47,28.47,0,0,1-3.9-.49,16.33,16.33,0,0,0-5.7-.46c-1.6-.33-3.3.06-4.84-.69l-4.76-.29c-1.88-.47-4,.48-5.69-1.17,0-.94-.08-1.88,0-2.82a4.56,4.56,0,0,0-1.58-3.74,3.5,3.5,0,0,1,.13-2.12c1.6-8-.36-15.07-5.19-21.64-3.42-4.65-7.62-8.62-11-13.32-.92-1.29-2.41-1.38-3.87-1.56-2.43-.31-2.58-.54-2.49-3,0-1.11.22-2.23.23-3.35,0-3.2-1.33-5.05-4.43-5-4.47.07-8-1.82-11.45-4.26-1.87-1.32-3.68-2.61-3.9-5.14-2.56-3.9-5.19-7.77-10.29-8.56a15,15,0,0,1-4.85-1.86c-3.63-2-7.19-4.17-11.55-4.26-2.18,0-3.37-1.66-4.41-3.29a2.21,2.21,0,0,1-.28-1.81c1.09-2.16,1.07-4.6,1.88-6.87,1-2.88,1-6.15,1.23-9.27.1-1.38-1.07-2.28-2.17-3-1.42-.91-1.9-1.91-1.08-3.61a4.57,4.57,0,0,0-.64-4.57A39.2,39.2,0,0,1,42,429.47a2.88,2.88,0,0,0-.9-1.1,6.49,6.49,0,0,1-2.19-3.57c-.86-3.05-2.93-5.71-2.82-9.07-1.85-3.35-3-7.06-5.36-10.15A9.17,9.17,0,0,1,29,399.76a6.47,6.47,0,0,1,3-6c3.92-2.69,4.5-5.67,2.79-10a2.4,2.4,0,0,0-2-1.78c-5.72-.44-6.6-5.33-8.48-9.25a3.4,3.4,0,0,1,0-2.35,15.27,15.27,0,0,0,.14-9.88.91.91,0,0,1,.32-.79c.48-.33.89,0,1.21.37,1.24,1.46,2.45,2.95,3.73,4.37a14.46,14.46,0,0,0,2.14,1.92,1.69,1.69,0,0,0,1.8.22,1.44,1.44,0,0,0,.81-1.59c-.61-3.57-.28-7.4-2.83-10.47a4.75,4.75,0,0,1-.77-2.72c-.3-3.4.3-4,3.58-3.39a5.44,5.44,0,0,0,1.41.25,10.4,10.4,0,0,1,8.32,3c1,.95,2,.64,2.72-.63A10.58,10.58,0,0,0,48,348.3c.17-.65-.31-1.44-1-1.26a6.79,6.79,0,0,1-6.31-1.16,2.54,2.54,0,0,0-1.81-.45c-2.64.48-4.57-.45-6.39-2.36-1-1.08-2.68-.8-4.07-.2A2.21,2.21,0,0,0,27,344.73c-.2,1.74-.2,3.53-1.57,5.14-2.48-2.68-5-5.3-7.39-8a1.52,1.52,0,0,1,.39-2.46c1.39-.88,1.45-1.88.84-3.25a25,25,0,0,1-2.15-6.34,7.21,7.21,0,0,0-1.74-3.38,22.45,22.45,0,0,1-3.53-6.75c-1.07-2.84-2.36-5.6-3.58-8.38-.52-1.2-1.09-2.45-.32-3.66,1-1.62.85-3.35.8-5.1s.05-3.53-.06-5.28c-.18-2.69.3-5.07,2.52-6.88a3,3,0,0,0,1.14-3c-.8-3.57-.15-7.46-1.91-10.78-2-3.68-2.68-7.84-5-11.38-1.72-2.69-1.14-5.61.24-8.21a14.91,14.91,0,0,1,4.06-5.27c3.39-2.4,4.34-6.15,6.2-9.4a3.78,3.78,0,0,0,.16-1.41,11.85,11.85,0,0,1,.57-3c.66-1.62,2.2-2.74,2.57-4.52.47-1.05.9-2.11,1.4-3.14l.32-1.86a8.26,8.26,0,0,1,.56-3,9,9,0,0,0-.12-5.93,5.06,5.06,0,0,1,.78-5.24c1.34-4.06,4.44-3.6,7.47-2.69,15.91,4.8,31.93,9.23,48,13.41,11.59,3,23.18,6,34.8,8.91,5.37,1.33,6.39,2.7,5.11,8.12-3.07,12.91-7.18,25.54-10.11,38.48a25.75,25.75,0,0,1-1,2.82c-4,14.16-7.65,28.4-11.56,42.57a9.53,9.53,0,0,0,1.65,8.55c31.44,45.3,63,90.51,94.32,135.9,1.72,2.5,3.52,4.95,5.3,7.42,2.85,4,4.84,8.05,4.89,13.19s2.75,9.41,5.53,13.59c3.67,5.54,3.5,6.39-1.94,9.75-5.1,3.14-7.59,8.09-9.52,13.4a53.76,53.76,0,0,1-5,10.87c-2.06,3.2-2.21,6.06.47,9.13,2,2.3,3.61,5,1.36,8.21-2.22.15-4.48-.3-6.64.52a6.55,6.55,0,0,1-3.08.06,14.18,14.18,0,0,0-5.72-.49c-1.27-.32-2.6-.15-3.87-.45a11.15,11.15,0,0,0-4.8-.42c-1.87-.62-3.91,0-5.76-.76a14.32,14.32,0,0,0-4.75-.33C155.8,553.77,154.12,554.11,152.55,553.53Z" transform="translate(-0.96 -0.96)"/>
  </g>
  <g id="Arkansas">
    <path class="cls-1" d="M727.4,547.08c0-3.68-.11-7.36,0-11,.29-7.85-.62-15.65-1.14-23.45-.39-5.72-1.76-11.37-2.74-17a112.73,112.73,0,0,1-1.79-12.79c-.17-3.17.08-3.5,3.42-3.6,5.91-.16,11.84-.05,17.75-.44,9.1-.6,18.22-.48,27.31-1,5.27-.32,10.55-.31,15.8-.77,7.65-.66,15.34-.44,23-1,5.9-.46,11.79-.85,17.7-1a33.26,33.26,0,0,1,4.79.18c2.4.31,3.46,2.19,2.79,4.57a8,8,0,0,1-2.14,3.13,14.56,14.56,0,0,0-2.74,3.31c-1.07,2.24,0,4.41,2.41,4.49,3,.1,6.08-.11,9.12-.15,1.06,0,2.37-.39,2.81,1.09a2.61,2.61,0,0,1-1.35,3.24c-2.23,1.32-3.6,3.07-3.2,5.88.07.52-.44,1.17-.8,1.68a14.86,14.86,0,0,1-1.56,1.82c-3.46,3.59-3.45,4.21.26,7.51a1.58,1.58,0,0,1,.26,2.45,15,15,0,0,1-1.73,1.65c-2.09,1.68-3.66,3.59-3.21,6.52.17,1.13-.53,1.75-1.43,2.24a11.1,11.1,0,0,0-3.79,3.61c-1.24,1.82-2.72,3.54-1.52,6.08.37.77-.08,1.9,0,2.85a3.14,3.14,0,0,1-2,3.46,4.25,4.25,0,0,0-2.67,3.16,2.17,2.17,0,0,1-1.06,1.51c-2.33,1.42-3.22,3.39-2.33,6.07.32,1-.28,1.48-1.17,1.68s-1.71.22-2,1.06a3.89,3.89,0,0,0-.14,2.33,4.33,4.33,0,0,1-1.24,5.11c-1.28,1.26-1.79,3.3-2.56,5a2.6,2.6,0,0,0,.14,2.32c1.69,3,1.59,6.46,3,9.54,1.22,2.55-.6,4.9-1.72,7.15-.23.45-1.06.67-1.65.83a8.62,8.62,0,0,1-1.9.18c-7.83.35-15.65.79-23.48,1-13.1.36-26.19,1.26-39.31.88-1.28,0-2.56,0-3.84,0-2.41-.08-2.53-.24-2.88-2.79a80.17,80.17,0,0,1-.82-10.5c0-2.84-.93-3.67-3.76-3.82-1.59-.09-3.19,0-4.79,0-1.36,0-2-.65-2.09-2.08-.09-1.12-.07-2.24-.07-3.36V547.08Z" transform="translate(-0.96 -0.96)"/>
  </g>
  <g id="Arizona">
    <path class="cls-1" d="M299.54,438.56c.39.27.76.71,1.17.77,5.52.78,11.05,1.47,16.56,2.25,5.67.81,11.32,1.74,17,2.53,3.79.52,7.6.9,11.4,1.32a21,21,0,0,1,2.39.14c4.5,1.07,4.76.77,4,5.56-1,6.46-1.61,13-2.47,19.43-.47,3.47-1.19,6.91-1.65,10.37s-.68,6.66-1.11,10c-.6,4.58-1.17,9.15-1.92,13.71-.59,3.61-.74,7.29-1.2,10.92-.48,3.79-1.07,7.56-1.64,11.33-.4,2.68-.62,5.38-1,8.06-.95,6.3-1.45,12.66-2.28,19-.78,6-1.8,12-2.6,18s-1.42,12-2.2,18c-.73,5.53-1.57,11.05-2.35,16.57L329.28,623l-3.88.17c-1.29-.26-2.65-.06-3.89-.65l-3.78-.34c-1.3-.22-2.67,0-3.9-.64l-2.84-.27c-1.59-.37-3.32.09-4.82-.83l-2.83-.23c-1.31-.15-2.68,0-3.9-.64l-3.78-.32c-1.31-.15-2.68,0-3.9-.66L288,618.3a7.33,7.33,0,0,1-3-.57l-3.76-.41a9.1,9.1,0,0,1-3-.44,22.9,22.9,0,0,1-6.15-2.54Q247.46,600.09,222.69,586c-3.73-2.13-7.21-4.73-11.27-6.29-.79-.41-1.43-1.05-2.21-1.48-2.05-1.23-3.9-2.81-6.29-3.42-1-.19-1.51-1-2.34-1.47A14.54,14.54,0,0,0,196.2,571c-1-.19-1.52-1.06-2.32-1.54l-10-5.8a2.93,2.93,0,0,1,0-2.12,4.32,4.32,0,0,1,4.75-3,19.45,19.45,0,0,0,3.29-.3c3.06-3.42,1.88-7-.4-9.89-2.71-3.47-2.8-6.54-.5-10,2.83-4.31,4.39-9.22,6.38-13.92s4.8-8.63,9.75-10.61c3.3-1.32,3.83-3.45,1.94-6.4-1-1.61-1.9-3.34-3-4.93-4.36-6.43-4.27-13.2-2.8-20.63A218.34,218.34,0,0,0,206,459a27.88,27.88,0,0,1,.32-4.29c1-4.12,4.09-5.3,7.54-2.92,7.05,4.88,7.37,4.77,9.39-3.52,1.25-5.12,2.17-10.31,3.09-15.51,1.14-6.46,2.74-7.74,9.11-6.25,14.78,3.46,29.77,5.78,44.7,8.42,5.19.92,10.42,1.59,15.62,2.47A6.06,6.06,0,0,1,299.54,438.56Z" transform="translate(-0.96 -0.96)"/>
  </g>
  <g id="Alaska">
    <path class="cls-3" d="M1343,865H1" transform="translate(-0.96 -0.96)"/>
    <path class="cls-1" d="M314.86,780.54a2.92,2.92,0,0,0-2.42,1.33c-.52.6-.95,1.44-1.85,1.35-2.49-.25-3.59,1.69-5.12,3s-3.06,2.21-3.55,4.32c-.43,1.86-2.27,3.09-2.6,5.08-.12.72-.76,1-1.39,1.14-1.45.34-1.95,1.16-1,2.4s.52,1.77-.3,2.84c-1.64,2.12-4,3.61-5.17,6.13a26.14,26.14,0,0,0-1.2,2.58c-.48,1.52,0,2.22,1.7,2.68.77.21,1.55.36,2.29.62s1.22,1.43.6,1.9a9.9,9.9,0,0,0-4.28,6.64c-.06.37-.57.78-1,1-4.14,2-6.48,6.11-10.27,8.51a2.83,2.83,0,0,0-1.15,2.52,3.49,3.49,0,0,1-2.35,3.3c-3.52,1.55-6.05,4.57-9.43,6.34a2.33,2.33,0,0,0-1.29,1.92c-.2,3.2-2.54,4.2-5.08,4.92a22.66,22.66,0,0,1-3.32.43,1.8,1.8,0,0,1-2-.86,2.34,2.34,0,0,1,.29-2.69,13.85,13.85,0,0,1,4.34-3.71c1.14-.58,2.17-1.38,3.33-1.86,1.72-.72,3.06-1.6,3.35-3.65.18-1.3,1.27-2.16,2-3.21,1.16-1.72,3.93-1.42,4.51-3.08.49-1.42-.92-3.26-.55-5.08a3.42,3.42,0,0,1,1.17-2,1.19,1.19,0,0,0,.33-1.68c-1.12-1.52-.56-2.7.64-3.75a5.34,5.34,0,0,0,1.66-4.33c0-.61.05-1.53-.29-1.78-.87-.6-1.32.38-1.88.87a17.67,17.67,0,0,1-1.84,1.52c-1.27.88-1.95.74-2.75-.84a4.1,4.1,0,0,0-2.06-1.87,2.09,2.09,0,0,0-2.57.51c-1.15,1-1.17,2.59-2.47,3.87-1.42-.68-2.5-2.42-4.4-2.26-2.7-2.09-5.25-1.41-7.8.37a2.79,2.79,0,0,1-2.42.56c-.76-1.27-.32-3-1.26-4.37a1.51,1.51,0,0,1,.08-1.35c1.16-1.76.42-3.35-.24-5-.41-1-.66-2.14-1.1-3.17-.93-2.23-1.09-4.33.71-6.23a1.44,1.44,0,0,0,.21-.43,1.18,1.18,0,0,0-.57-1.6,1.41,1.41,0,0,0-1.3.16c-1.43,2-3.34,3.57-3.33,6.53,0,2.16-2.57,2.42-4.28,3a2,2,0,0,1-2.81-1.07c-.73-1.84-2.21-3.1-3.48-4.52-.42-.48-.89-.91-1.31-1.4a2.24,2.24,0,0,1-.45-.83,1.56,1.56,0,0,1,.47-1.73c.55-.45,1.24-.63,1.64,0,1.21,2.06,3.41,1.31,5.13,1.85.93.29,2-1.22,1.86-2.31-.26-2-1.31-3.1-3.51-2.94s-3.52-.86-4.6-2.67a1.9,1.9,0,0,1,.22-2.54,6.3,6.3,0,0,0,.94-1.61c.07-.18-.19-.54-.36-.78a.45.45,0,0,0-.43-.06c-.57.24-1.13.52-1.69.8-.82.42-1.18,1.58-2.36,1.44-.84-.51-.69-1.42-.62-2.11a16,16,0,0,1,3.14-8.35,2.48,2.48,0,0,1,1.95-1.25c1.94.05,2.42-1.24,2.63-2.75.44-3.14.41-3.14,2.17-5.44,1.31,0,1.21,1.87,2.42,2a10.87,10.87,0,0,0,2.85,0,4.62,4.62,0,0,0,3-2.26,4.45,4.45,0,0,1,4.83-2.27c2.21.29,3.61-.93,4.71-2.66a4.38,4.38,0,0,0,.69-3.65,30.33,30.33,0,0,0-.93-3.7,3.33,3.33,0,0,1,.41-3.57,2.87,2.87,0,0,0,.26-3.17c-.78-1.57-1.93-2.12-3.51-1.47a19.26,19.26,0,0,0-5,2.77,2.76,2.76,0,0,1-2.66.46,17.92,17.92,0,0,0-8.52,0,7.71,7.71,0,0,1-4.23-.22c-3-1-3.76-1.87-4.06-5.12-.09-.94.55-1.36,1.06-2,1-1.2.87-2.1-.36-2.65-1.44-.66-3-1.1-4.45-1.71a1.32,1.32,0,0,1-.94-1.48A1.79,1.79,0,0,1,221,734a13.51,13.51,0,0,0,4.42-2.73,2.56,2.56,0,0,1,2.26-.54,2.27,2.27,0,0,0,2.9-1.78c.25-.86,1.08-1,1.86-1.28,1.06-.34,2-.87,3.08-1.27.85-.34,1.55.15,1.54,1.15,0,1.42-.41,2.89.84,4,1.06,1,2.37.77,3.63.87.48,0,.95.13,1.43.13,1.59,0,3.21,1,4.7.35,1.26-.59,2.36-1.45,3.72-2s2.35-1.55,3.68-2.11a1.9,1.9,0,0,0,1.16-1.93,2.2,2.2,0,0,0-1.65-2.11c-1.35-.44-2.69-1-4.2-.49-1,.34-1.43-.32-1.47-1.27a11.37,11.37,0,0,0,0-1.43c-.23-1.57-.86-2.35-2.37-2.55-1.24-.17-2.53,0-3.8-.08s-2.36-.5-2.53-1.8c-.63-4.94-4.41-7.57-7.65-10.6-.46-.43-1.07-.7-1.54-1.12a2.6,2.6,0,0,1-.88-3c.75-2.41.56-3.54,4.17-3.39,4.81.2,7.86-1,10.38-8.05,2-5.48,5.46-8.28,11.32-8.39a2.94,2.94,0,0,0,3.09-2.37c.29-1,.63-1.86,1.64-2.11,3.37-.84,6.23-2.34,8.1-5.44a1,1,0,0,1,1.85.41c.13.62,0,1.3.16,1.9a1.75,1.75,0,0,0,2.95,1c1.18-.89,2-1.4,3.26-.15,1.09,1.07,2.33.44,3.57,0,2.72-1,2.74-.93,4.69,1.38,1.68,2,4,3.1,6.36,2.32a20.87,20.87,0,0,1,14,0,9.85,9.85,0,0,0,3.79,0,9.94,9.94,0,0,1,4.73.31,5.51,5.51,0,0,0,5.48-.6c2.82-1.89,5.47-1.41,8.61-.54,3.82,1,5.37,3.18,6.36,6.75,3.16,11.39,6.61,22.69,10,34q4.88,16.54,9.76,33.09,3.85,13.1,7.68,26.19c.41,1.38.74,2.79,1.28,4.12a3.25,3.25,0,0,0,3.84,2.13,29.45,29.45,0,0,0,4.15-1.09c.92-.3,1.6-2.28,2.63-1,.77,1-1.07,1.68-1.51,2.65a7.75,7.75,0,0,1-.73,1.24c-1.86,2.55-3.86,3-6.46,1-1-.76-1.83-1.18-3-.54a2.83,2.83,0,0,1-1.33.48,19.83,19.83,0,0,0-10.59,2.45,2.43,2.43,0,0,1-2.28-.15,8.29,8.29,0,0,0-2.22-.86,2,2,0,0,1-2-2.23,7.36,7.36,0,0,0-.29-1.86c-.17-.59-.7-.6-1.15-.39a2.14,2.14,0,0,0-.67.64c-.67.83-.75,2.41-2.09,2.34-.81-.05-1.57-1-2.35-1.46-1.69-1.13-3.54-2.07-4.22-4.26-.19-.61-1-.7-1.65-.39a3.06,3.06,0,0,0-.8.52,3.5,3.5,0,0,1-4.76.61,1.83,1.83,0,0,0-2.21-.17c-1,.73-2.47,1.08-2.74,2.5-.43,2.34-1,4.78.81,6.82a3.74,3.74,0,0,1,1,2.58c0,1.85-.71,2.85-2.53,2.56s-3,.52-4,1.82c-1.62,2-3.32,3.85-5,5.76a1.9,1.9,0,0,1-2.18-.22c.12-1.91.12-1.91-1.76-1.9a2.28,2.28,0,0,1-1.85-2.06c1-1.42,2-2.87,1.75-4.76a7.24,7.24,0,0,0,0-1.86,4.87,4.87,0,0,1,2-4.25c1.61-.91,3.63-.23,5.2-1.33l1.26,0c.77.31,1.55.64,2.17-.27.19-.93-.17-1.62-1.09-1.7a3.22,3.22,0,0,1-2.43-1.23c.26-.21.33-.37.2-.49a.46.46,0,0,0-.33-.15l1-1.93C315.5,781.89,315.71,781.18,314.86,780.54Z" transform="translate(-0.96 -0.96)"/>
    <path class="cls-1" d="M421.39,797.1c3.2,1.83,5.63,4.59,8.36,7a6.65,6.65,0,0,0,4.75,1.74c2.21,0,4.49-.12,6.64.7s4.65,1.07,4.89,4.27c.07,1,1.1,1.9,1.81,2.76a4.7,4.7,0,0,1,.94,3.13c0,1.25-.52,2.51-1.07,2.38-1.09-.28-.66-1.29-.88-2-.05-.15-.06-.37-.16-.44-2.62-1.86-3.87-5-6.47-6.88-.92-.67-1.65-.83-2.52,0a6.46,6.46,0,0,1-1.17.82c-.41.23-1,.41-1.1-.23-.19-1.59-1.38-1.84-2.55-2.42A34.2,34.2,0,0,1,426,803.7c-1.47-1.24-3.63-1.25-4.69-3A3.55,3.55,0,0,1,421.39,797.1Z" transform="translate(-0.96 -0.96)"/>
    <path class="cls-1" d="M394.19,797.36a11.54,11.54,0,0,1-6.06-2.65,16,16,0,0,0-7.85-3.15,12,12,0,0,1-1.87-.41c-2.25-.64-2.58-1.91-1.05-3.88a1.51,1.51,0,0,1,2.05-.59c1.7.88,3.35,1.86,5.1,2.63s2.81,2.75,4.48,3.46,3.72.53,5.6.78a3,3,0,0,1,.87.38c1.22.54,1.86,1.39,1.51,2.08a2.48,2.48,0,0,1-2.34,1.35Z" transform="translate(-0.96 -0.96)"/>
    <path class="cls-1" d="M394.11,787.59c.07-.63.09-1.75.3-2.84a5.14,5.14,0,0,1,2.76-3.69,1.48,1.48,0,0,1,1.76.27c.3.29.68.95.55,1.18-1.48,2.6-.07,4.57,1.32,6.56.64.91,1.34,1.78,1.92,2.73a1.06,1.06,0,0,1-.36,1.62,1.58,1.58,0,0,1-1.31-.09,4.51,4.51,0,0,1-1.26-1.38c-.4-.65-.38-1.58-1.19-2s-1.5.27-2.26.41C394.42,790.76,394,790.27,394.11,787.59Z" transform="translate(-0.96 -0.96)"/>
    <path class="cls-1" d="M252.69,854c-1.91,1.43-3.36,2.62-5.25.54-.74-.81-1.92-.27-2.45.59a14.32,14.32,0,0,1-3.17,4.15,1.13,1.13,0,0,1-.86.17,1,1,0,0,1-.68-1.1,7.53,7.53,0,0,1,4-5.61c2-1.21,3.95-2,5.86.3C250.56,853.59,251.57,853.63,252.69,854Z" transform="translate(-0.96 -0.96)"/>
    <path class="cls-1" d="M401.87,785.27c1.43-.77,2.42-.11,3.31.49a13.91,13.91,0,0,0,4.11,2.36c1.21.31,1.31,1.22,1.13,2.25-.13.78-.18,1.64-1.08,2a2.16,2.16,0,0,1-2.21-.5A20.14,20.14,0,0,1,401.87,785.27Z" transform="translate(-0.96 -0.96)"/>
    <path class="cls-4" d="M421.39,797.1l-.09,3.6c-.42-.18-1.17-.3-1.21-.54-.55-3.34-3-4.8-5.75-6a3.64,3.64,0,0,1-2.16-1.72,1.68,1.68,0,0,1,.06-1.77,1.23,1.23,0,0,1,1.67-.43C416.75,792.16,420,793.63,421.39,797.1Z" transform="translate(-0.96 -0.96)"/>
    <path class="cls-4" d="M308.94,804.53l2.18.22c-.4,2.56-2.4,3.43-4.48,4.17a.91.91,0,0,1-.8-.26c-.14-.17-.17-.71,0-.79C307.07,807,307.4,805.18,308.94,804.53Z" transform="translate(-0.96 -0.96)"/>
    <path class="cls-4" d="M314.24,788.37a2.49,2.49,0,0,1-2.34,1.35H309a1.84,1.84,0,0,1,2-1.53C312.1,788.21,313.17,788.3,314.24,788.37Z" transform="translate(-0.96 -0.96)"/>
    <path class="cls-4" d="M305.33,800.57c.62.69,1.24,1.37,1.85,2.06-.6.84-1.43,1.21-2.23.49C303.93,802.21,304.3,801.29,305.33,800.57Z" transform="translate(-0.96 -0.96)"/>
    <path class="cls-4" d="M314.86,780.54c.69-.08,1.24.15,1.28.88s-.5,1-1.11,1.21C315,781.94,314.92,781.24,314.86,780.54Z" transform="translate(-0.96 -0.96)"/>
    <path class="cls-4" d="M317.67,788.13c-.67,1.71-.75,1.72-2.17.26Z" transform="translate(-0.96 -0.96)"/>
    <path class="cls-4" d="M307.08,794q1.19.93,0,1.86Q305.77,794.88,307.08,794Z" transform="translate(-0.96 -0.96)"/>
    <path class="cls-4" d="M314,784.56a.39.39,0,0,1,.14.64A.59.59,0,0,1,314,784.56Z" transform="translate(-0.96 -0.96)"/>
    <path class="cls-2" d="M369.05,787.11l4.41,1.42c1.84.6,2.63-2.3.8-2.89l-4.41-1.42c-1.84-.59-2.63,2.3-.8,2.89Z" transform="translate(-0.96 -0.96)"/>
    <path class="cls-2" d="M392.64,788.66l-1.37,2.72a1.54,1.54,0,0,0,.54,2,1.51,1.51,0,0,0,2.05-.54l1.38-2.72a1.54,1.54,0,0,0-.54-2,1.52,1.52,0,0,0-2.06.54Z" transform="translate(-0.96 -0.96)"/>
    <path class="cls-2" d="M407.23,789.9a1.5,1.5,0,0,0,0-3,1.5,1.5,0,0,0,0,3Z" transform="translate(-0.96 -0.96)"/>
    <path class="cls-2" d="M409.62,790.24a1.5,1.5,0,0,0,0-3,1.5,1.5,0,0,0,0,3Z" transform="translate(-0.96 -0.96)"/>
  </g>
  <g id="Alabama">
    <path class="cls-1" d="M898.55,664.42a7.81,7.81,0,0,1-2.09-4.2c-1-7.27-2.24-14.51-3.28-21.77-.51-3.63-.93-7.29-1.16-11-.42-6.69-.85-13.39-1-20.1-.16-10.07,0-20.15-.09-30.22-.13-10.56.84-21,1.39-31.57.4-7.66.24-15.35.26-23a16.35,16.35,0,0,0-.54-3.3,1.23,1.23,0,0,1,1.09-1.69,7.46,7.46,0,0,1,1-.11c5.41-.37,10.83-.65,16.23-1.15,4.76-.44,9.49-1.24,14.24-1.66,3.66-.33,7.31-.64,10.95-1q7.85-.79,15.66-1.84a2.15,2.15,0,0,1,2.61,1.49c.5,1.34,1.07,2.67,1.48,4,6,19.84,12.06,39.67,17.39,59.72a36.79,36.79,0,0,0,2.58,7.2c.86,1.72,1.7,3.42,3.59,4.33a3.76,3.76,0,0,1,2.15,3.48,5.06,5.06,0,0,0,.47,2.31c.9,1.5.28,2.62-.39,4-2.64,5.45-3.25,11,.1,16.42a7,7,0,0,1,1.08,4.56,15.6,15.6,0,0,1-.24,2.38,14.68,14.68,0,0,0,.94,10.69c.6,1.23-.07,2.24-1.5,2.3-5.11.21-10.07,1.54-15.19,1.86-7.47.48-14.89,1.7-22.33,2.55-4,.45-8,.7-11.9,1.19-4.27.53-8.54,1.09-12.75,1.92s-5.59,4-3.67,7.94a9.71,9.71,0,0,0,3,3.65,5.33,5.33,0,0,1,2.44,2.83c-.1,1.26-.28,2.53-.29,3.8,0,1.75-.47,3.14-2.39,3.64a2,2,0,0,0-1.52,2.15c-.41.9-1,1.47-2.08,1.09l-.21-2a5.11,5.11,0,0,0-1.71-1.78l-2.79-1.19a2.33,2.33,0,0,1-.29-2.92,6.09,6.09,0,0,0,.12-3.25,4.61,4.61,0,0,0-5.17-3,1.83,1.83,0,0,0-1.47,1.63c-.16,1.4-.24,2.81-.35,4.22-.12,1.12-.8,2.17-.44,3.35,0,.73,0,1.45,0,2.18a2.78,2.78,0,0,1-2.12.37Z" transform="translate(-0.96 -0.96)"/>
  </g>
</svg>
